<svg xmlns="http://www.w3.org/2000/svg" xmlns:xlink="http://www.w3.org/1999/xlink" viewBox="0 0 4680 3120"><defs><style>.cls-1{fill:none;}.cls-2{isolation:isolate;}.cls-10,.cls-24,.cls-3{fill:#fff;}.cls-3{opacity:0;}.cls-4{fill:#e0e7f3;}.cls-5{fill:#d0daed;}.cls-6{fill:#ff625f;}.cls-7{clip-path:url(#clip-path);}.cls-8{opacity:0.3;}.cls-28,.cls-9{fill:#34509c;}.cls-11{fill:#2c3579;}.cls-12{fill:#81bc8c;}.cls-13,.cls-25,.cls-28{opacity:0.5;}.cls-14{fill:#5c9a87;}.cls-15{fill:#f19a6d;}.cls-16{fill:#ef7c59;}.cls-17{fill:#38261f;}.cls-18,.cls-25{fill:#a5bfdf;}.cls-19{fill:#52261f;}.cls-20{fill:#1a124c;}.cls-21{fill:#c17552;}.cls-22{fill:#f66438;stroke:#c17552;}.cls-22,.cls-23{stroke-miterlimit:10;}.cls-23{fill:#ffac3d;stroke:#f1a953;}.cls-24{opacity:0.6;}.cls-25,.cls-28{mix-blend-mode:multiply;}.cls-26{fill:#f2f2f2;}.cls-27{clip-path:url(#clip-path-2);}.cls-29{fill:#183a59;}.cls-30{fill:#002b81;}.cls-31{fill:#f7ce9c;}.cls-32{fill:#1d456b;}.cls-33{fill:#3074b3;}.cls-34{fill:#141f35;}.cls-35{fill:#4c352e;}.cls-36{fill:#f1a87f;}.cls-37{fill:#f1a953;}.cls-38{fill:#ffa600;}.cls-39{fill:#fbfcfd;}.cls-40{fill:#f3ce90;}</style><clipPath id="clip-path"><circle class="cls-1" cx="3984.87" cy="1620.1" r="207.53" transform="translate(21.56 3292.25) rotate(-45)"/></clipPath><clipPath id="clip-path-2"><path class="cls-1" d="M3270.48,685h-555c-158.73,0-287.4,128.68-287.4,287.4v257.67c0,118.51,71.72,220.25,174.13,264.21l-45.3,122.3,203.44-99.1h510.11c158.73,0,287.4-128.68,287.4-287.41V972.38C3557.88,813.66,3429.21,685,3270.48,685Z"/></clipPath></defs><title>19</title><g class="cls-2"><g id="_09" data-name="09"><rect id="_09-2" data-name="09" class="cls-3" width="4680" height="3120"/><path class="cls-4" d="M2166.86,825c115.94,103.24,399.31,212,554.8,205S3071.5,637.71,3068,535.24s-431.12-67.14-667.88-17.67S1908.9,595.31,2166.86,825Z"/><path class="cls-4" d="M2938.67,987.43c-495.31,197-704.47,37-881.16-130.76C1601.15,423.5,1037,637.77,883.84,1056.17c-179.73,491-238.29,1256.75-32.73,1450.56,83.49,78.72,346.13,122.3,464.7,122.14l2279.7-3.08c463.32,0,369.8-272.8,351.09-501.93C3899,1540.11,3976.67,574.67,2938.67,987.43Z"/><path class="cls-5" d="M2454.87,1958.06c-64.53,37.21-66.89,111.58-111.13,109.59-19.75-.89-40.17-16.64-46.95-33.72-15.56-39.22,38.36-91.83,74-117.29,80.3-57.4,134.52-24.69,173.86-75.6,30.16-39,38.08-109.72,1.35-156.59-30-38.26-87.1-57.3-128.17-42.62-80.22,28.67-73.63,176.92-110.11,172.89-16.53-1.83-30.72-33.68-35.36-56.71-9.51-47.25,16.31-81.66,47.58-132.1,66-106.37,98.92-159.55,88.14-209.85-10.59-49.44-55.67-94.67-105.24-109.77-56.65-17.26-121.08,4.25-145.15,48.1-30.86,56.23,26.53,109.39,2.53,222.42-3.19,15-17.51,76.74-39.55,75.38-18.77-1.17-35.17-47.62-43.14-70.19-26.25-74.38-8.18-101.21-31.94-133.46-26.35-35.78-86-53.53-123-36.5-54.77,25.2-56.11,124.66-39.87,190.54,36.23,147,181.86,215.6,159.75,270.63-8.49,21.13-38.21,31.55-59.26,26.43-20.44-5-30.33-24.05-71.39-89-50-79.08-59.35-88.71-72-91.48-29.66-6.48-67.72,26.79-77.72,66.2-17.41,68.59,48.17,163.54,116.76,215.76,67.66,51.52,129.86,55.08,144.81,106,5.12,17.43,4.84,40.85-7.53,50.18-24.88,18.76-88.59-27.13-100.91-36-66.68-48-78.42-95.7-112.36-96.09-23-.26-45.55,21.26-50.75,44.89-13.92,63.3,94,154.51,172.31,197,72.41,39.33,142.86,49.71,196.68,50.28,241.73-19.19,351.76-123,396.82-176.88,37.27-44.54,104.78-144.14,74.71-183.76C2571.32,1928.82,2501.36,1931.25,2454.87,1958.06Z"/><circle class="cls-6" cx="3984.87" cy="1620.09" r="207.53"/><g class="cls-7"><circle class="cls-6" cx="3956.77" cy="1620.09" r="207.53"/><circle class="cls-8" cx="3956.77" cy="1620.09" r="207.53"/><circle class="cls-9" cx="3984.87" cy="1620.09" r="207.53"/></g><circle class="cls-10" cx="3984.87" cy="1620.09" r="150.79"/><circle class="cls-9" cx="3984.87" cy="1620.09" r="97.72" transform="translate(-298.5 1224.27) rotate(-16.85)"/><path class="cls-10" d="M3984.87,1575.38a44.72,44.72,0,1,0,44.72,44.71A44.71,44.71,0,0,0,3984.87,1575.38Z"/><path class="cls-11" d="M4246.12,1448.91l-263.53,167.6a4.25,4.25,0,0,0,4.56,7.17l263.53-167.6a4.25,4.25,0,0,0-4.56-7.17Z"/><polygon class="cls-11" points="4188.74 1493.11 4230.7 1466.84 4232.64 1416.1 4192.41 1447.44 4188.74 1493.11"/><polygon class="cls-11" points="4188.78 1490.04 4236.72 1506.77 4276.51 1477.31 4232.65 1464.03 4188.78 1490.04"/><path class="cls-12" d="M4039.87,2271.43c-30.06-.28-37.24,40.86-93.11,81.31-10.32,7.48-63.7,46.13-87,29.4-11.6-8.31-13.42-28.63-10.07-43.66,9.82-43.94,64.72-45.9,121.21-89.36,57.28-44.06,109-125.23,89-185-11.53-34.37-47.51-63.92-73.35-58.84-11,2.17-18.66,10.36-57.67,78.05-32,55.55-39.5,71.91-57.29,75.85-18.31,4.07-45.35-5.51-54.3-24-23.3-48.13,101.15-105,123.35-231.85,10-56.85,2.06-143.15-48.19-166-34-15.44-85.62-1.12-106.56,29.43-18.88,27.55-1.06,51.14-19.31,115.19-5.54,19.43-16.94,59.43-33.5,60.09-19.45.79-36.3-53-40.14-66.1-28.9-98.47,18.39-143.54-12.76-192.88-24.28-38.47-82.85-58.29-131.9-44.35-42.92,12.2-79.82,50.61-85.88,93.3-6.16,43.44,26.65,90.17,92.28,183.63,31.12,44.32,56.32,74.63,51.08,115.45-2.56,19.89-13,47.26-27.52,48.55-32.06,2.83-36.22-125.64-109.26-152-37.38-13.47-86.72,2-110.72,34.65-29.4,40-17.61,101.45,11.75,135.85,38.3,44.88,84.16,17.49,159.2,68.73,33.3,22.73,84.64,69.34,73.49,103.08-4.86,14.69-21.9,28-39.34,28.39-39.08.93-46.18-63.63-105.89-97.07-43-24.1-105.19-27.48-122.17-3.52-24,33.82,42.58,121.44,78.61,160.75,43.57,47.52,148.1,139.6,363.65,160.62,47.67.48,109.41-7.25,170.94-40,66.57-35.49,156-112.65,139.44-167.81C4081.68,2290.69,4060.22,2271.61,4039.87,2271.43Z"/><g class="cls-13"><path class="cls-10" d="M3608.21,1793.49l-7.87,1.62c.34,1.64,34.12,164.49,75.36,269.34,41.73,106.13,92.39,327,76.78,431.61l7.94,1.19c15.81-105.88-35.19-328.79-77.25-435.74C3642.19,1957.3,3608.55,1795.12,3608.21,1793.49Z"/></g><path class="cls-14" d="M4109.5,1977.52c-29.12-4.27-65.94,24.12-76.42,56.28-10.56,32.44,11.89,49.59,8.92,113.66-1.1,23.71-2.69,51.36-18.34,58.07-13.08,5.6-33.67-4.38-44.71-19.14-22.81-30.5,9.34-62.41-7-109.11-11.64-33.2-44.91-65.6-71.11-60-22.74,4.88-39.46,38.28-39.47,67.26,0,46.41,42.82,58.66,44.35,110.34.68,22.92-6.8,52.41-22.06,56.64-17.4,4.82-42.78-23.75-55.3-48.26-16.54-32.34-7-50.37-23.08-63.07-17.95-14.16-53.39-10.33-69.54,7.84-22.62,25.44-6.13,77.58,13.6,107.81,25.26,38.71,57.84,44.61,61.06,78.6,1.18,12.48-1.46,30.08-11.85,35.46-14.83,7.66-39.41-12.67-55.74-26.17-39.72-32.85-42.18-55.94-62.47-57.69-20.53-1.78-44.58,19.59-48.88,42.18-2.38,12.55-.54,35.33,50.11,79.49,35.45,30.9,99.12,76,203.28,104.23,56.31-24,147.59-73.64,217.64-171.45,28.87-40.3,85.25-119,77.74-220.81C4176.45,2069,4154.75,1984.17,4109.5,1977.52Z"/><path class="cls-4" d="M1934.62,1176.66l-9.74,0c-43.41.12-78.93,36-78.92,79.63v51.27c0,43.67,35.53,79.31,78.94,79.2l9.75,0c43.41-.12,78.92-36,78.92-79.62v-51.27C2013.56,1212.18,1978,1176.54,1934.62,1176.66Z"/><path class="cls-12" d="M1515.66,1968c-25.68-7.28-66.91,26.09-82.83,63.52-22.09,51.94,10.4,98-17.29,117-12.35,8.46-31.9,8.25-43.78,1-27.31-16.64-18.66-73.07-8.71-104.73,22.43-71.35,70.16-76.28,70.76-125,.46-37.37-27-83.77-70.59-95.39-35.59-9.48-78.84,5-97,32.64-35.48,53.94,36.11,140.66,12.19,154.86-10.84,6.43-34-6.38-47.26-18.21-27.3-24.26-27.37-56.86-31.44-101.65-8.59-94.44-12.88-141.67-42.34-167.2-29-25.09-76.86-31.91-113.75-18.44-42.15,15.38-71.35,57.78-65.92,95.29,7,48.11,65.94,54.12,103,133.47,4.92,10.54,24.4,54.43,10.44,63.65-11.9,7.86-43-12.78-58.12-22.81-49.8-33-51.1-57.52-80.18-66.21-32.26-9.64-76.44,6.8-91.09,34-21.66,40.22,22.88,101,62.75,133.5,89,72.47,208.37,47.57,220.08,91,4.5,16.65-8.73,36.51-23.81,43-14.64,6.31-29.32-.72-83.77-21.28-66.33-25.05-76.37-26.63-85.3-22.53-20.9,9.6-28.77,47.09-16.85,75.51,20.73,49.45,103.72,77,169,77.34,64.44.33,103.71-25.87,136-1.84,11,8.21,21.56,22.52,18.32,33.8-6.5,22.7-66,24-77.49,24.22-62.26,1.34-91.1-22.16-111.82-6.92-14,10.31-17.87,33.63-10.25,50.31,20.44,44.66,127.33,50.67,194.14,40.69,61.76-9.22,109.13-35,142-59.25,137.55-121.84,156.8-234.86,159.51-288C1556.48,2069.36,1551.93,1978.3,1515.66,1968Z"/><g class="cls-13"><path class="cls-10" d="M1201.87,2050.76c-32.13-89.74-103.07-214-103.78-215.2l-6.4,2.87c.71,1.24,71.35,125,103.29,214.14,32.77,91.52,126.56,263.93,198.92,325.77l4.83-4.76C1327.26,2312.5,1234.4,2141.59,1201.87,2050.76Z"/></g><path class="cls-14" d="M1417.08,2139.36c-43.39-14.6-57.74,18.58-52.91,48.79,5,31.14,42.7,54.14,1.69,82.55-50.46,35-58.5-26.82-72.84-56.56l0,0c-15.2-31.47-50.79-69.83-84.6-60.71-81.61,22,8.2,124.18-72.44,114.63-37.1-4.39-92.5-62.94-127.46-23.46-18.83,21.27-9,66,13,91.43,31,35.81,75.45,21,89.22,55.33,6.66,16.64,4.13,39.8-7.65,49.15-14.11,11.2-38.52.24-59.32-9.4C987.57,2405,985,2377,951.68,2372c-33-4.93-76.95,15.75-88.91,44.09-18.59,44,42.05,101.79,83.29,127.94,82.73,52.48,180,36.63,229.84,28.51,98.29-16,174-60.88,232.64-142q2.31-3.18,4.57-6.44c43.89-63.08,57.49-129,45.63-203.36C1454.37,2193.28,1448,2149.75,1417.08,2139.36Z"/><path class="cls-15" d="M2693.05,2430.53c-14.89-8.91-180.74,1.43-180.74,1.43s-12.09,38.17.69,60.16,132.27,31.81,171.17,51,63.35,10.43,74.93-3.48S2707.94,2439.44,2693.05,2430.53Z"/><path class="cls-15" d="M2052.59,1966.68c-56.54-223.19-81.68-271.13-81.68-271.13s-168.63,36-183.48,133.26,106.94,472.68,157.93,543.66c28.08,39.09,592.22,153.57,592.22,153.57l25.54-87.8s-348.58-162.3-403.32-202.87C2121.51,2184.08,2073,2047.29,2052.59,1966.68Z"/><path class="cls-16" d="M2004.09,2284.22c-23.82-42.34-81.68-434.78-81.68-434.78L1800,1794.5a94.45,94.45,0,0,0-12.55,34.31c-14.86,97.29,106.94,472.68,157.93,543.66,25.44,35.4,490.63,132.66,578.1,150.68l15.13-.56,1.81-6.23C2454.14,2484.1,2025.51,2322.29,2004.09,2284.22Z"/><ellipse class="cls-17" cx="1477.38" cy="929.8" rx="107.5" ry="102.87"/><path class="cls-17" d="M1854.34,931.61c-91.89-51.07-144.23-24.5-144.23-24.5-285.57-63.06-316.89,249.05-317.36,333.76s-6.61,181.84-140.53,249.29c-263.49,132.71-68,406.22-68,406.22,37,71.86,158.15,106.7,158.15,106.7-1.76-68.58,298.47-317.52,477.46-414.31,45.85-56.15,67.92-159.1,69.6-167.2-12.94,81.91-30.89,127.18-45.86,152.36C1997.66,1455.3,1948.51,984,1854.34,931.61Z"/><path class="cls-18" d="M1441.54,1026.87c7.41-30.91,30.29-59.24,50.39-76,43.15-36,90.87-41.23,90.87-41.23C1417.55,904.63,1441.54,1026.87,1441.54,1026.87Z"/><path class="cls-15" d="M1815.31,1539.32c-27.56-11-76-25.54-124.9-30-72-6.54-143.93,0-143.93,0-10,34.22,44,129.89,186.88,151.25S1883.42,1566.57,1815.31,1539.32Z"/><path class="cls-15" d="M1814.4,1388.18l-188-48.26-11.18-2.86c-9.34,141.68-55.76,203.75-61.32,227.68-11.7,50.33,120.79,121.46,182.22,124,93.57,4,74-94.88,73.19-95.31-10.52-5.54-10.4-48.77-7.11-94.15C1806.07,1445.28,1814.4,1388.18,1814.4,1388.18Z"/><path class="cls-16" d="M1802.17,1499.33c3.9-54,12.23-111.15,12.23-111.15l-188-48.26C1645.87,1393,1695.74,1489.65,1802.17,1499.33Z"/><path class="cls-17" d="M1893.61,1004.54c-52.35-38.92-110.27-48.14-110.27-48.14-198.84-40.34-239.62,149.08-233.63,201.27,8.38,73.09,58.37,161.14,58.37,161.14l281.67-1,22.19-55.19C1993.9,1100.32,1935.23,1035.49,1893.61,1004.54Z"/><path class="cls-15" d="M1804.57,1026.29c-125.24-.8-160.93,24-161.67,136.17-.07,9.57-1.8,108.54-.43,117.76,0,0-24.09,176.37,162.92,179.38,9,.14,18-.25,25-5.3,123.88-89.3,100.33-217.6,100.37-218.37.32-5.83,10.63-82,10.63-82C1942.15,1041.74,1929.82,1027.08,1804.57,1026.29Z"/><path class="cls-15" d="M1612,1189.23c-33.73,1.14-60,31.66-58.73,68.15s29.71,65.14,63.44,64,60-31.67,58.73-68.16S1645.7,1188.08,1612,1189.23Z"/><path class="cls-17" d="M1620.63,1229.25c-12-7.8-25.25-4.3-25.81-4.15l1.78,6.24c.1,0,11-2.82,20.43,3.35,7,4.6,11.68,13,13.85,24.9-8-.32-24.89.26-32.05,10.05l5.4,3.76c5.87-8,23.75-7.83,30.14-7.08l4.22.5-.53-4.12C1636,1246.67,1630.13,1235.41,1620.63,1229.25Z"/><path class="cls-16" d="M1651.9,1222.85s-8.48,29-10.71,57.35c0,0-6.11,45,11.93,90,30-5.84,54.71-28.9,60.52-60.05C1721.26,1269.35,1693.61,1230.29,1651.9,1222.85Z"/><path class="cls-16" d="M1883.7,1318.16a73.58,73.58,0,0,0,16.47,61.36,230.41,230.41,0,0,0,32.35-118.14C1908,1270.3,1888.74,1291.18,1883.7,1318.16Z"/><path class="cls-17" d="M1772.32,1317.53l-4.51,3.34c18,23.14,37.61,31.71,51.9,34.69,11.78,2.46,20,1.12,20.69,1l-1-5.44C1837.91,1351.36,1803,1356.9,1772.32,1317.53Z"/><path class="cls-19" d="M1756.62,1165.13c-14.27,5.39-11.11,14.75-9.68,17.9.83,1.85,6.09,0,18.6-1,26.65-2.23,37,3,43.11-3.94,3.57-4.12,4.34-11,1.59-14.91C1803.33,1153.42,1758.5,1164.42,1756.62,1165.13Z"/><path class="cls-19" d="M1937.76,1185.25c-1.42-.83-33.76-16.16-40.73-9.14-2.78,2.79-3.12,8.5-.79,12.32,4,6.47,13.13,3.58,34.46,8.92,10,2.51,14,4.66,15,3.28C1947.26,1198.25,1948.6,1191.52,1937.76,1185.25Z"/><path class="cls-17" d="M1863.65,1256.51c10,13,13.68,23.8,10.59,31.38-3.9,9.57-17.45,11.9-17.59,11.92l1.08,6.39c.71-.12,17.33-2.91,22.65-15.87,4.08-9.94.23-22.63-11.44-37.72Z"/><path class="cls-17" d="M1776.68,1210.92c-4.8.06-8.61,6.63-8.51,14.68s4.09,14.53,8.89,14.47,8.61-6.63,8.5-14.68S1781.48,1210.86,1776.68,1210.92Z"/><path class="cls-17" d="M1912.77,1227c-4.38.06-7.85,6-7.75,13.39s3.72,13.24,8.09,13.18,7.85-6,7.75-13.38S1917.14,1226.91,1912.77,1227Z"/><path class="cls-17" d="M1647.54,973.86c-24.39,106.82-123,237.62-123,237.62s44.08,30.11,151.9,10.79S1878,1030.77,1878,1030.77C1830.59,855.61,1647.54,973.86,1647.54,973.86Z"/><path class="cls-17" d="M1855.92,1038.84s61.4,31.07,71.3,70.17,2.75,158.53,27,157.38c0,0,55.16-145.24,1.41-216.8C1898.57,973.7,1855.92,1038.84,1855.92,1038.84Z"/><path class="cls-18" d="M1994.52,2429.28c-28.94-16.13-54.38-32.58-62.24-49.1-6.15-12.89-5.61-41.29-1.57-77.5,11.39-102.23,51-266.58,48.84-319.09-2.93-71.08-16.64-121.19-16.64-121.19,26.42-27.92,74.63-37.76,74.63-37.76-8.06-48.31-63.85-220.83-89.29-247s-133-38.3-133-38.3l-3-46.92-218.45-79.18-47.32,96.12s-54.24,264.45-93.4,488.74q-2.46,14.19-4.89,28.13c-19.79,115.36-77.13,471.17-77.13,513.81,0,78.12,334.45,113.95,425.49,62.8,40.08-22.53,96.46-33.17,150.12-41.65,68.21-10.73,132-17.91,152.46-41.3C2123.39,2492.09,2052,2461.29,1994.52,2429.28Z"/><path class="cls-4" d="M1664.76,1241.57c-3.88-46.59-46.64-81.59-95-77.78l-10.86.85c-48.38,3.81-84.79,45-80.91,91.63l4.55,54.69c3.88,46.58,46.64,81.58,95,77.77l10.86-.85c48.38-3.81,84.79-45,80.91-91.63Z"/><path class="cls-4" d="M1583.93,1002.31c-45.41,85.88-45.88,185.57-41.36,199,0,0,45-2.71,56.48-2,10.79-90.9,67.83-260.38,149-300.93l-47.5-2.06C1658.78,897.64,1605.88,960.8,1583.93,1002.31Z"/><polygon class="cls-20" points="1589.93 1276.27 1589.93 1276.27 1589.93 1276.27 1589.93 1276.27"/><path class="cls-20" d="M1809.69,1388.55c-146.26,0-218.88-110.91-219.76-112.28l-13.93,8.21c.77,1.2,77.88,119.79,233.69,119.79h3.12l-.18-15.73Z"/><polygon class="cls-20" points="1582.97 1280.37 1589.93 1276.27 1589.92 1276.26 1582.97 1280.37"/><path class="cls-18" d="M1608,1259.84c-1.93-23.21-23.24-40.65-47.34-38.75l-5.41.42c-24.11,1.9-42.24,22.45-40.31,45.66l2.26,27.25c1.94,23.21,23.24,40.65,47.35,38.75l5.41-.43c24.1-1.9,42.24-22.44,40.31-45.65Z"/><path class="cls-20" d="M1829.05,1383.29h-14.69a13.11,13.11,0,1,0,0,26.21h14.69a13.11,13.11,0,1,0,0-26.21Z"/><ellipse class="cls-17" cx="2389.09" cy="2590.97" rx="1964.37" ry="169.03"/><ellipse class="cls-17" cx="2389.09" cy="2590.87" rx="1964.37" ry="169.03"/><ellipse class="cls-17" cx="2389.09" cy="2590.77" rx="1964.37" ry="169.03"/><ellipse class="cls-17" cx="2389.09" cy="2590.67" rx="1964.37" ry="169.03"/><ellipse class="cls-17" cx="2389.09" cy="2590.57" rx="1964.37" ry="169.03"/><ellipse class="cls-17" cx="2389.09" cy="2590.47" rx="1964.37" ry="169.03"/><ellipse class="cls-17" cx="2389.09" cy="2590.37" rx="1964.37" ry="169.03"/><ellipse class="cls-17" cx="2389.09" cy="2590.27" rx="1964.37" ry="169.03"/><ellipse class="cls-17" cx="2389.09" cy="2590.17" rx="1964.37" ry="169.03"/><ellipse class="cls-17" cx="2389.09" cy="2590.07" rx="1964.37" ry="169.03"/><ellipse class="cls-17" cx="2389.09" cy="2589.97" rx="1964.37" ry="169.03"/><ellipse class="cls-17" cx="2389.09" cy="2589.87" rx="1964.37" ry="169.03"/><ellipse class="cls-17" cx="2389.09" cy="2589.77" rx="1964.37" ry="169.03"/><ellipse class="cls-17" cx="2389.09" cy="2589.67" rx="1964.37" ry="169.03"/><ellipse class="cls-17" cx="2389.09" cy="2589.57" rx="1964.37" ry="169.03"/><ellipse class="cls-17" cx="2389.09" cy="2589.47" rx="1964.37" ry="169.03"/><ellipse class="cls-17" cx="2389.09" cy="2589.37" rx="1964.37" ry="169.03"/><ellipse class="cls-17" cx="2389.09" cy="2589.27" rx="1964.37" ry="169.03"/><ellipse class="cls-17" cx="2389.09" cy="2589.17" rx="1964.37" ry="169.03"/><ellipse class="cls-17" cx="2389.09" cy="2589.07" rx="1964.37" ry="169.03"/><ellipse class="cls-17" cx="2389.09" cy="2588.97" rx="1964.37" ry="169.03"/><ellipse class="cls-17" cx="2389.09" cy="2588.87" rx="1964.37" ry="169.03"/><ellipse class="cls-17" cx="2389.09" cy="2588.77" rx="1964.37" ry="169.03"/><ellipse class="cls-17" cx="2389.09" cy="2588.67" rx="1964.37" ry="169.03"/><ellipse class="cls-17" cx="2389.09" cy="2588.57" rx="1964.37" ry="169.03"/><ellipse class="cls-17" cx="2389.09" cy="2588.47" rx="1964.37" ry="169.03"/><ellipse class="cls-17" cx="2389.09" cy="2588.37" rx="1964.37" ry="169.03"/><ellipse class="cls-17" cx="2389.09" cy="2588.27" rx="1964.37" ry="169.03"/><ellipse class="cls-17" cx="2389.09" cy="2588.17" rx="1964.37" ry="169.03"/><ellipse class="cls-17" cx="2389.09" cy="2588.07" rx="1964.37" ry="169.03"/><ellipse class="cls-17" cx="2389.09" cy="2587.97" rx="1964.37" ry="169.03"/><ellipse class="cls-17" cx="2389.09" cy="2587.87" rx="1964.37" ry="169.03"/><ellipse class="cls-17" cx="2389.09" cy="2587.77" rx="1964.37" ry="169.03"/><ellipse class="cls-17" cx="2389.09" cy="2587.67" rx="1964.37" ry="169.03"/><ellipse class="cls-17" cx="2389.09" cy="2587.57" rx="1964.37" ry="169.03"/><ellipse class="cls-17" cx="2389.09" cy="2587.47" rx="1964.37" ry="169.03"/><ellipse class="cls-17" cx="2389.09" cy="2587.37" rx="1964.37" ry="169.03"/><ellipse class="cls-17" cx="2389.09" cy="2587.27" rx="1964.37" ry="169.03"/><ellipse class="cls-17" cx="2389.09" cy="2587.17" rx="1964.37" ry="169.03"/><ellipse class="cls-17" cx="2389.09" cy="2587.07" rx="1964.37" ry="169.03"/><ellipse class="cls-17" cx="2389.09" cy="2586.97" rx="1964.37" ry="169.03"/><ellipse class="cls-17" cx="2389.09" cy="2586.87" rx="1964.37" ry="169.03"/><ellipse class="cls-17" cx="2389.09" cy="2586.77" rx="1964.37" ry="169.03"/><ellipse class="cls-17" cx="2389.09" cy="2586.67" rx="1964.37" ry="169.03"/><ellipse class="cls-17" cx="2389.09" cy="2586.57" rx="1964.37" ry="169.03"/><ellipse class="cls-17" cx="2389.09" cy="2586.47" rx="1964.37" ry="169.03"/><ellipse class="cls-17" cx="2389.09" cy="2586.37" rx="1964.37" ry="169.03"/><ellipse class="cls-17" cx="2389.09" cy="2586.27" rx="1964.37" ry="169.03"/><ellipse class="cls-17" cx="2389.09" cy="2586.17" rx="1964.37" ry="169.03"/><ellipse class="cls-17" cx="2389.09" cy="2586.07" rx="1964.37" ry="169.03"/><ellipse class="cls-17" cx="2389.09" cy="2585.97" rx="1964.37" ry="169.03"/><ellipse class="cls-17" cx="2389.09" cy="2585.87" rx="1964.37" ry="169.03"/><ellipse class="cls-17" cx="2389.09" cy="2585.77" rx="1964.37" ry="169.03"/><ellipse class="cls-17" cx="2389.09" cy="2585.67" rx="1964.37" ry="169.03"/><ellipse class="cls-17" cx="2389.09" cy="2585.57" rx="1964.37" ry="169.03"/><ellipse class="cls-17" cx="2389.09" cy="2585.47" rx="1964.37" ry="169.03"/><ellipse class="cls-17" cx="2389.09" cy="2585.37" rx="1964.37" ry="169.03"/><ellipse class="cls-17" cx="2389.09" cy="2585.27" rx="1964.37" ry="169.03"/><ellipse class="cls-17" cx="2389.09" cy="2585.17" rx="1964.37" ry="169.03"/><ellipse class="cls-17" cx="2389.09" cy="2585.07" rx="1964.37" ry="169.03"/><ellipse class="cls-17" cx="2389.09" cy="2584.97" rx="1964.37" ry="169.03"/><ellipse class="cls-17" cx="2389.09" cy="2584.87" rx="1964.37" ry="169.03"/><ellipse class="cls-17" cx="2389.09" cy="2584.77" rx="1964.37" ry="169.03"/><ellipse class="cls-17" cx="2389.09" cy="2584.67" rx="1964.37" ry="169.03"/><ellipse class="cls-17" cx="2389.09" cy="2584.57" rx="1964.37" ry="169.03"/><ellipse class="cls-17" cx="2389.09" cy="2584.47" rx="1964.37" ry="169.03"/><ellipse class="cls-17" cx="2389.09" cy="2584.37" rx="1964.37" ry="169.03"/><ellipse class="cls-17" cx="2389.09" cy="2584.27" rx="1964.37" ry="169.03"/><ellipse class="cls-17" cx="2389.09" cy="2584.17" rx="1964.37" ry="169.03"/><ellipse class="cls-17" cx="2389.09" cy="2584.07" rx="1964.37" ry="169.03"/><ellipse class="cls-17" cx="2389.09" cy="2583.97" rx="1964.37" ry="169.03"/><ellipse class="cls-17" cx="2389.09" cy="2583.87" rx="1964.37" ry="169.03"/><ellipse class="cls-17" cx="2389.09" cy="2583.77" rx="1964.37" ry="169.03"/><ellipse class="cls-17" cx="2389.09" cy="2583.67" rx="1964.37" ry="169.03"/><ellipse class="cls-17" cx="2389.09" cy="2583.57" rx="1964.37" ry="169.03"/><ellipse class="cls-17" cx="2389.09" cy="2583.47" rx="1964.37" ry="169.03"/><ellipse class="cls-17" cx="2389.09" cy="2583.37" rx="1964.37" ry="169.03"/><ellipse class="cls-17" cx="2389.09" cy="2583.27" rx="1964.37" ry="169.03"/><ellipse class="cls-17" cx="2389.09" cy="2583.17" rx="1964.37" ry="169.03"/><ellipse class="cls-17" cx="2389.09" cy="2583.07" rx="1964.37" ry="169.03"/><ellipse class="cls-17" cx="2389.09" cy="2582.97" rx="1964.37" ry="169.03"/><ellipse class="cls-17" cx="2389.09" cy="2582.87" rx="1964.37" ry="169.03"/><ellipse class="cls-17" cx="2389.09" cy="2582.77" rx="1964.37" ry="169.03"/><ellipse class="cls-17" cx="2389.09" cy="2582.67" rx="1964.37" ry="169.03"/><ellipse class="cls-17" cx="2389.09" cy="2582.57" rx="1964.37" ry="169.03"/><ellipse class="cls-17" cx="2389.09" cy="2582.47" rx="1964.37" ry="169.03"/><ellipse class="cls-17" cx="2389.09" cy="2582.37" rx="1964.37" ry="169.03"/><ellipse class="cls-17" cx="2389.09" cy="2582.27" rx="1964.37" ry="169.03"/><ellipse class="cls-17" cx="2389.09" cy="2582.17" rx="1964.37" ry="169.03"/><ellipse class="cls-17" cx="2389.09" cy="2582.07" rx="1964.37" ry="169.03"/><ellipse class="cls-17" cx="2389.09" cy="2581.97" rx="1964.37" ry="169.03"/><ellipse class="cls-17" cx="2389.09" cy="2581.87" rx="1964.37" ry="169.03"/><ellipse class="cls-17" cx="2389.09" cy="2581.77" rx="1964.37" ry="169.03"/><ellipse class="cls-17" cx="2389.09" cy="2581.67" rx="1964.37" ry="169.03"/><ellipse class="cls-17" cx="2389.09" cy="2581.57" rx="1964.37" ry="169.03"/><ellipse class="cls-17" cx="2389.09" cy="2581.47" rx="1964.37" ry="169.03"/><ellipse class="cls-17" cx="2389.09" cy="2581.37" rx="1964.37" ry="169.03"/><ellipse class="cls-17" cx="2389.09" cy="2581.27" rx="1964.37" ry="169.03"/><ellipse class="cls-17" cx="2389.09" cy="2581.17" rx="1964.37" ry="169.03"/><ellipse class="cls-17" cx="2389.09" cy="2581.07" rx="1964.37" ry="169.03"/><ellipse class="cls-17" cx="2389.09" cy="2580.97" rx="1964.37" ry="169.03"/><ellipse class="cls-17" cx="2389.09" cy="2580.87" rx="1964.37" ry="169.03"/><ellipse class="cls-17" cx="2389.09" cy="2580.77" rx="1964.37" ry="169.03"/><ellipse class="cls-17" cx="2389.09" cy="2580.67" rx="1964.37" ry="169.03"/><ellipse class="cls-17" cx="2389.09" cy="2580.57" rx="1964.37" ry="169.03"/><ellipse class="cls-17" cx="2389.09" cy="2580.47" rx="1964.37" ry="169.03"/><ellipse class="cls-17" cx="2389.09" cy="2580.37" rx="1964.37" ry="169.03"/><ellipse class="cls-17" cx="2389.09" cy="2580.27" rx="1964.37" ry="169.03"/><ellipse class="cls-17" cx="2389.09" cy="2580.17" rx="1964.37" ry="169.03"/><ellipse class="cls-17" cx="2389.09" cy="2580.07" rx="1964.37" ry="169.03"/><ellipse class="cls-17" cx="2389.09" cy="2579.97" rx="1964.37" ry="169.03"/><ellipse class="cls-17" cx="2389.09" cy="2579.87" rx="1964.37" ry="169.03"/><ellipse class="cls-17" cx="2389.09" cy="2579.77" rx="1964.37" ry="169.03"/><ellipse class="cls-17" cx="2389.09" cy="2579.67" rx="1964.37" ry="169.03"/><ellipse class="cls-17" cx="2389.09" cy="2579.57" rx="1964.37" ry="169.03"/><ellipse class="cls-17" cx="2389.09" cy="2579.47" rx="1964.37" ry="169.03"/><ellipse class="cls-17" cx="2389.09" cy="2579.37" rx="1964.37" ry="169.03"/><ellipse class="cls-17" cx="2389.09" cy="2579.27" rx="1964.37" ry="169.03"/><ellipse class="cls-17" cx="2389.09" cy="2579.17" rx="1964.37" ry="169.03"/><ellipse class="cls-17" cx="2389.09" cy="2579.07" rx="1964.37" ry="169.03"/><ellipse class="cls-17" cx="2389.09" cy="2578.97" rx="1964.37" ry="169.03"/><ellipse class="cls-17" cx="2389.09" cy="2578.87" rx="1964.37" ry="169.03"/><ellipse class="cls-17" cx="2389.09" cy="2578.77" rx="1964.37" ry="169.03"/><ellipse class="cls-17" cx="2389.09" cy="2578.67" rx="1964.37" ry="169.03"/><ellipse class="cls-17" cx="2389.09" cy="2578.57" rx="1964.37" ry="169.03"/><ellipse class="cls-17" cx="2389.09" cy="2578.47" rx="1964.37" ry="169.03"/><ellipse class="cls-17" cx="2389.09" cy="2578.37" rx="1964.37" ry="169.03"/><ellipse class="cls-17" cx="2389.09" cy="2578.27" rx="1964.37" ry="169.03"/><ellipse class="cls-17" cx="2389.09" cy="2578.17" rx="1964.37" ry="169.03"/><ellipse class="cls-17" cx="2389.09" cy="2578.07" rx="1964.37" ry="169.03"/><ellipse class="cls-17" cx="2389.09" cy="2577.97" rx="1964.37" ry="169.03"/><ellipse class="cls-17" cx="2389.09" cy="2577.87" rx="1964.37" ry="169.03"/><ellipse class="cls-17" cx="2389.09" cy="2577.77" rx="1964.37" ry="169.03"/><ellipse class="cls-17" cx="2389.09" cy="2577.67" rx="1964.37" ry="169.03"/><ellipse class="cls-17" cx="2389.09" cy="2577.57" rx="1964.37" ry="169.03"/><ellipse class="cls-17" cx="2389.09" cy="2577.47" rx="1964.37" ry="169.03"/><ellipse class="cls-17" cx="2389.09" cy="2577.37" rx="1964.37" ry="169.03"/><ellipse class="cls-17" cx="2389.09" cy="2577.27" rx="1964.37" ry="169.03"/><ellipse class="cls-17" cx="2389.09" cy="2577.17" rx="1964.37" ry="169.03"/><ellipse class="cls-17" cx="2389.09" cy="2577.07" rx="1964.37" ry="169.03"/><ellipse class="cls-17" cx="2389.09" cy="2576.97" rx="1964.37" ry="169.03"/><ellipse class="cls-17" cx="2389.09" cy="2576.87" rx="1964.37" ry="169.03"/><ellipse class="cls-17" cx="2389.09" cy="2576.77" rx="1964.37" ry="169.03"/><ellipse class="cls-17" cx="2389.09" cy="2576.67" rx="1964.37" ry="169.03"/><ellipse class="cls-17" cx="2389.09" cy="2576.57" rx="1964.37" ry="169.03"/><ellipse class="cls-17" cx="2389.09" cy="2576.47" rx="1964.37" ry="169.03"/><ellipse class="cls-17" cx="2389.09" cy="2576.37" rx="1964.37" ry="169.03"/><ellipse class="cls-17" cx="2389.09" cy="2576.27" rx="1964.37" ry="169.03"/><ellipse class="cls-17" cx="2389.09" cy="2576.17" rx="1964.37" ry="169.03"/><ellipse class="cls-17" cx="2389.09" cy="2576.07" rx="1964.37" ry="169.03"/><ellipse class="cls-17" cx="2389.09" cy="2575.97" rx="1964.37" ry="169.03"/><ellipse class="cls-17" cx="2389.09" cy="2575.87" rx="1964.37" ry="169.03"/><ellipse class="cls-17" cx="2389.09" cy="2575.77" rx="1964.37" ry="169.03"/><ellipse class="cls-17" cx="2389.09" cy="2575.67" rx="1964.37" ry="169.03"/><ellipse class="cls-17" cx="2389.09" cy="2575.57" rx="1964.37" ry="169.03"/><ellipse class="cls-17" cx="2389.09" cy="2575.47" rx="1964.37" ry="169.03"/><ellipse class="cls-17" cx="2389.09" cy="2575.37" rx="1964.37" ry="169.03"/><ellipse class="cls-17" cx="2389.09" cy="2575.27" rx="1964.37" ry="169.03"/><ellipse class="cls-17" cx="2389.09" cy="2575.17" rx="1964.37" ry="169.03"/><ellipse class="cls-17" cx="2389.09" cy="2575.07" rx="1964.37" ry="169.03"/><ellipse class="cls-17" cx="2389.09" cy="2574.97" rx="1964.37" ry="169.03"/><ellipse class="cls-17" cx="2389.09" cy="2574.87" rx="1964.37" ry="169.03"/><ellipse class="cls-17" cx="2389.09" cy="2574.77" rx="1964.37" ry="169.03"/><ellipse class="cls-17" cx="2389.09" cy="2574.67" rx="1964.37" ry="169.03"/><ellipse class="cls-17" cx="2389.09" cy="2574.57" rx="1964.37" ry="169.03"/><ellipse class="cls-17" cx="2389.09" cy="2574.47" rx="1964.37" ry="169.03"/><ellipse class="cls-17" cx="2389.09" cy="2574.37" rx="1964.37" ry="169.03"/><ellipse class="cls-17" cx="2389.09" cy="2574.27" rx="1964.37" ry="169.03"/><ellipse class="cls-17" cx="2389.09" cy="2574.17" rx="1964.37" ry="169.03"/><ellipse class="cls-17" cx="2389.09" cy="2574.07" rx="1964.37" ry="169.03"/><ellipse class="cls-17" cx="2389.09" cy="2573.97" rx="1964.37" ry="169.03"/><ellipse class="cls-17" cx="2389.09" cy="2573.87" rx="1964.37" ry="169.03"/><ellipse class="cls-17" cx="2389.09" cy="2573.77" rx="1964.37" ry="169.03"/><ellipse class="cls-17" cx="2389.09" cy="2573.67" rx="1964.37" ry="169.03"/><ellipse class="cls-17" cx="2389.09" cy="2573.57" rx="1964.37" ry="169.03"/><ellipse class="cls-17" cx="2389.09" cy="2573.47" rx="1964.37" ry="169.03"/><ellipse class="cls-17" cx="2389.09" cy="2573.37" rx="1964.37" ry="169.03"/><ellipse class="cls-17" cx="2389.09" cy="2573.27" rx="1964.37" ry="169.03"/><ellipse class="cls-17" cx="2389.09" cy="2573.17" rx="1964.37" ry="169.03"/><ellipse class="cls-17" cx="2389.09" cy="2573.07" rx="1964.37" ry="169.03"/><ellipse class="cls-17" cx="2389.09" cy="2572.97" rx="1964.37" ry="169.03"/><ellipse class="cls-17" cx="2389.09" cy="2572.87" rx="1964.37" ry="169.03"/><ellipse class="cls-17" cx="2389.09" cy="2572.77" rx="1964.37" ry="169.03"/><ellipse class="cls-17" cx="2389.09" cy="2572.67" rx="1964.37" ry="169.03"/><ellipse class="cls-17" cx="2389.09" cy="2572.57" rx="1964.37" ry="169.03"/><ellipse class="cls-17" cx="2389.09" cy="2572.47" rx="1964.37" ry="169.03"/><ellipse class="cls-17" cx="2389.09" cy="2572.37" rx="1964.37" ry="169.03"/><ellipse class="cls-17" cx="2389.09" cy="2572.27" rx="1964.37" ry="169.03"/><ellipse class="cls-17" cx="2389.09" cy="2572.17" rx="1964.37" ry="169.03"/><ellipse class="cls-17" cx="2389.09" cy="2572.07" rx="1964.37" ry="169.03"/><ellipse class="cls-17" cx="2389.09" cy="2571.97" rx="1964.37" ry="169.03"/><ellipse class="cls-17" cx="2389.09" cy="2571.87" rx="1964.37" ry="169.03"/><ellipse class="cls-17" cx="2389.09" cy="2571.77" rx="1964.37" ry="169.03"/><ellipse class="cls-17" cx="2389.09" cy="2571.67" rx="1964.37" ry="169.03"/><ellipse class="cls-17" cx="2389.09" cy="2571.57" rx="1964.37" ry="169.03"/><ellipse class="cls-17" cx="2389.09" cy="2571.47" rx="1964.37" ry="169.03"/><ellipse class="cls-17" cx="2389.09" cy="2571.37" rx="1964.37" ry="169.03"/><ellipse class="cls-17" cx="2389.09" cy="2571.27" rx="1964.37" ry="169.03"/><ellipse class="cls-17" cx="2389.09" cy="2571.17" rx="1964.37" ry="169.03"/><ellipse class="cls-17" cx="2389.09" cy="2571.07" rx="1964.37" ry="169.03"/><ellipse class="cls-17" cx="2389.09" cy="2570.97" rx="1964.37" ry="169.03"/><ellipse class="cls-17" cx="2389.09" cy="2570.87" rx="1964.37" ry="169.03"/><ellipse class="cls-17" cx="2389.09" cy="2570.77" rx="1964.37" ry="169.03"/><ellipse class="cls-17" cx="2389.09" cy="2570.67" rx="1964.37" ry="169.03"/><ellipse class="cls-17" cx="2389.09" cy="2570.57" rx="1964.37" ry="169.03"/><ellipse class="cls-17" cx="2389.09" cy="2570.47" rx="1964.37" ry="169.03"/><ellipse class="cls-17" cx="2389.09" cy="2570.37" rx="1964.37" ry="169.03"/><ellipse class="cls-17" cx="2389.09" cy="2570.27" rx="1964.37" ry="169.03"/><ellipse class="cls-17" cx="2389.09" cy="2570.17" rx="1964.37" ry="169.03"/><ellipse class="cls-17" cx="2389.09" cy="2570.07" rx="1964.37" ry="169.03"/><ellipse class="cls-17" cx="2389.09" cy="2569.97" rx="1964.37" ry="169.03"/><ellipse class="cls-17" cx="2389.09" cy="2569.87" rx="1964.37" ry="169.03"/><ellipse class="cls-17" cx="2389.09" cy="2569.77" rx="1964.37" ry="169.03"/><ellipse class="cls-17" cx="2389.09" cy="2569.67" rx="1964.37" ry="169.03"/><ellipse class="cls-17" cx="2389.09" cy="2569.57" rx="1964.37" ry="169.03"/><ellipse class="cls-17" cx="2389.09" cy="2569.47" rx="1964.37" ry="169.03"/><ellipse class="cls-17" cx="2389.09" cy="2569.37" rx="1964.37" ry="169.03"/><ellipse class="cls-17" cx="2389.09" cy="2569.27" rx="1964.37" ry="169.03"/><ellipse class="cls-17" cx="2389.09" cy="2569.17" rx="1964.37" ry="169.03"/><ellipse class="cls-17" cx="2389.09" cy="2569.07" rx="1964.37" ry="169.03"/><ellipse class="cls-17" cx="2389.09" cy="2568.97" rx="1964.37" ry="169.03"/><ellipse class="cls-17" cx="2389.09" cy="2568.87" rx="1964.37" ry="169.03"/><ellipse class="cls-17" cx="2389.09" cy="2568.77" rx="1964.37" ry="169.03"/><ellipse class="cls-17" cx="2389.09" cy="2568.67" rx="1964.37" ry="169.03"/><ellipse class="cls-17" cx="2389.09" cy="2568.57" rx="1964.37" ry="169.03"/><ellipse class="cls-17" cx="2389.09" cy="2568.47" rx="1964.37" ry="169.03"/><ellipse class="cls-17" cx="2389.09" cy="2568.37" rx="1964.37" ry="169.03"/><ellipse class="cls-17" cx="2389.09" cy="2568.27" rx="1964.37" ry="169.03"/><ellipse class="cls-17" cx="2389.09" cy="2568.17" rx="1964.37" ry="169.03"/><ellipse class="cls-17" cx="2389.09" cy="2568.07" rx="1964.37" ry="169.03"/><ellipse class="cls-17" cx="2389.09" cy="2567.97" rx="1964.37" ry="169.03"/><ellipse class="cls-17" cx="2389.09" cy="2567.87" rx="1964.37" ry="169.03"/><ellipse class="cls-17" cx="2389.09" cy="2567.77" rx="1964.37" ry="169.03"/><ellipse class="cls-17" cx="2389.09" cy="2567.67" rx="1964.37" ry="169.03"/><ellipse class="cls-17" cx="2389.09" cy="2567.57" rx="1964.37" ry="169.03"/><ellipse class="cls-17" cx="2389.09" cy="2567.47" rx="1964.37" ry="169.03"/><ellipse class="cls-17" cx="2389.09" cy="2567.37" rx="1964.37" ry="169.03"/><ellipse class="cls-17" cx="2389.09" cy="2567.27" rx="1964.37" ry="169.03"/><ellipse class="cls-17" cx="2389.09" cy="2567.17" rx="1964.37" ry="169.03"/><ellipse class="cls-17" cx="2389.09" cy="2567.07" rx="1964.37" ry="169.03"/><ellipse class="cls-17" cx="2389.09" cy="2566.97" rx="1964.37" ry="169.03"/><ellipse class="cls-17" cx="2389.09" cy="2566.87" rx="1964.37" ry="169.03"/><ellipse class="cls-17" cx="2389.09" cy="2566.77" rx="1964.37" ry="169.03"/><ellipse class="cls-17" cx="2389.09" cy="2566.67" rx="1964.37" ry="169.03"/><ellipse class="cls-17" cx="2389.09" cy="2566.57" rx="1964.37" ry="169.03"/><ellipse class="cls-17" cx="2389.09" cy="2566.47" rx="1964.37" ry="169.03"/><ellipse class="cls-17" cx="2389.09" cy="2566.37" rx="1964.37" ry="169.03"/><ellipse class="cls-17" cx="2389.09" cy="2566.27" rx="1964.37" ry="169.03"/><ellipse class="cls-17" cx="2389.09" cy="2566.17" rx="1964.37" ry="169.03"/><ellipse class="cls-17" cx="2389.09" cy="2566.07" rx="1964.37" ry="169.03"/><ellipse class="cls-17" cx="2389.09" cy="2565.97" rx="1964.37" ry="169.03"/><ellipse class="cls-17" cx="2389.09" cy="2565.87" rx="1964.37" ry="169.03"/><ellipse class="cls-17" cx="2389.09" cy="2565.77" rx="1964.37" ry="169.03"/><ellipse class="cls-17" cx="2389.09" cy="2565.67" rx="1964.37" ry="169.03"/><ellipse class="cls-17" cx="2389.09" cy="2565.57" rx="1964.37" ry="169.03"/><ellipse class="cls-17" cx="2389.09" cy="2565.47" rx="1964.37" ry="169.03"/><ellipse class="cls-17" cx="2389.09" cy="2565.37" rx="1964.37" ry="169.03"/><ellipse class="cls-17" cx="2389.09" cy="2565.27" rx="1964.37" ry="169.03"/><ellipse class="cls-17" cx="2389.09" cy="2565.17" rx="1964.37" ry="169.03"/><ellipse class="cls-17" cx="2389.09" cy="2565.07" rx="1964.37" ry="169.03"/><ellipse class="cls-17" cx="2389.09" cy="2564.97" rx="1964.37" ry="169.03"/><ellipse class="cls-17" cx="2389.09" cy="2564.87" rx="1964.37" ry="169.03"/><ellipse class="cls-17" cx="2389.09" cy="2564.77" rx="1964.37" ry="169.03"/><ellipse class="cls-17" cx="2389.09" cy="2564.67" rx="1964.37" ry="169.03"/><ellipse class="cls-17" cx="2389.09" cy="2564.57" rx="1964.37" ry="169.03"/><ellipse class="cls-17" cx="2389.09" cy="2564.47" rx="1964.37" ry="169.03"/><ellipse class="cls-17" cx="2389.09" cy="2564.37" rx="1964.37" ry="169.03"/><ellipse class="cls-17" cx="2389.09" cy="2564.27" rx="1964.37" ry="169.03"/><ellipse class="cls-17" cx="2389.09" cy="2564.17" rx="1964.37" ry="169.03"/><ellipse class="cls-17" cx="2389.09" cy="2564.07" rx="1964.37" ry="169.03"/><ellipse class="cls-17" cx="2389.09" cy="2563.97" rx="1964.37" ry="169.03"/><ellipse class="cls-17" cx="2389.09" cy="2563.87" rx="1964.37" ry="169.03"/><ellipse class="cls-17" cx="2389.09" cy="2563.77" rx="1964.37" ry="169.03"/><ellipse class="cls-17" cx="2389.09" cy="2563.67" rx="1964.37" ry="169.03"/><ellipse class="cls-17" cx="2389.09" cy="2563.57" rx="1964.37" ry="169.03"/><ellipse class="cls-17" cx="2389.09" cy="2563.47" rx="1964.37" ry="169.03"/><ellipse class="cls-17" cx="2389.09" cy="2563.37" rx="1964.37" ry="169.03"/><ellipse class="cls-17" cx="2389.09" cy="2563.27" rx="1964.37" ry="169.03"/><ellipse class="cls-17" cx="2389.09" cy="2563.17" rx="1964.37" ry="169.03"/><ellipse class="cls-17" cx="2389.09" cy="2563.07" rx="1964.37" ry="169.03"/><ellipse class="cls-17" cx="2389.09" cy="2562.97" rx="1964.37" ry="169.03"/><ellipse class="cls-17" cx="2389.09" cy="2562.87" rx="1964.37" ry="169.03"/><ellipse class="cls-17" cx="2389.09" cy="2562.77" rx="1964.37" ry="169.03"/><ellipse class="cls-17" cx="2389.09" cy="2562.67" rx="1964.37" ry="169.03"/><ellipse class="cls-17" cx="2389.09" cy="2562.57" rx="1964.37" ry="169.03"/><ellipse class="cls-17" cx="2389.09" cy="2562.47" rx="1964.37" ry="169.03"/><ellipse class="cls-17" cx="2389.09" cy="2562.37" rx="1964.37" ry="169.03"/><ellipse class="cls-17" cx="2389.09" cy="2562.27" rx="1964.37" ry="169.03"/><ellipse class="cls-17" cx="2389.09" cy="2562.17" rx="1964.37" ry="169.03"/><ellipse class="cls-17" cx="2389.09" cy="2562.07" rx="1964.37" ry="169.03"/><ellipse class="cls-17" cx="2389.09" cy="2561.97" rx="1964.37" ry="169.03"/><ellipse class="cls-17" cx="2389.09" cy="2561.87" rx="1964.37" ry="169.03"/><ellipse class="cls-17" cx="2389.09" cy="2561.77" rx="1964.37" ry="169.03"/><ellipse class="cls-17" cx="2389.09" cy="2561.67" rx="1964.37" ry="169.03"/><ellipse class="cls-17" cx="2389.09" cy="2561.57" rx="1964.37" ry="169.03"/><ellipse class="cls-17" cx="2389.09" cy="2561.47" rx="1964.37" ry="169.03"/><ellipse class="cls-17" cx="2389.09" cy="2561.37" rx="1964.37" ry="169.03"/><ellipse class="cls-17" cx="2389.09" cy="2561.27" rx="1964.37" ry="169.03"/><ellipse class="cls-17" cx="2389.09" cy="2561.17" rx="1964.37" ry="169.03"/><ellipse class="cls-17" cx="2389.09" cy="2561.07" rx="1964.37" ry="169.03"/><ellipse class="cls-17" cx="2389.09" cy="2560.97" rx="1964.37" ry="169.03"/><ellipse class="cls-17" cx="2389.09" cy="2560.87" rx="1964.37" ry="169.03"/><ellipse class="cls-17" cx="2389.09" cy="2560.77" rx="1964.37" ry="169.03"/><ellipse class="cls-17" cx="2389.09" cy="2560.67" rx="1964.37" ry="169.03"/><ellipse class="cls-17" cx="2389.09" cy="2560.57" rx="1964.37" ry="169.03"/><ellipse class="cls-17" cx="2389.09" cy="2560.47" rx="1964.37" ry="169.03"/><ellipse class="cls-17" cx="2389.09" cy="2560.37" rx="1964.37" ry="169.03"/><ellipse class="cls-17" cx="2389.09" cy="2560.27" rx="1964.37" ry="169.03"/><ellipse class="cls-17" cx="2389.09" cy="2560.17" rx="1964.37" ry="169.03"/><ellipse class="cls-17" cx="2389.09" cy="2560.07" rx="1964.37" ry="169.03"/><ellipse class="cls-17" cx="2389.09" cy="2559.97" rx="1964.37" ry="169.03"/><ellipse class="cls-17" cx="2389.09" cy="2559.87" rx="1964.37" ry="169.03"/><ellipse class="cls-17" cx="2389.09" cy="2559.77" rx="1964.37" ry="169.03"/><ellipse class="cls-17" cx="2389.09" cy="2559.67" rx="1964.37" ry="169.03"/><ellipse class="cls-17" cx="2389.09" cy="2559.57" rx="1964.37" ry="169.03"/><ellipse class="cls-17" cx="2389.09" cy="2559.47" rx="1964.37" ry="169.03"/><ellipse class="cls-17" cx="2389.09" cy="2559.37" rx="1964.37" ry="169.03"/><ellipse class="cls-17" cx="2389.09" cy="2559.27" rx="1964.37" ry="169.03"/><ellipse class="cls-17" cx="2389.09" cy="2559.17" rx="1964.37" ry="169.03"/><ellipse class="cls-17" cx="2389.09" cy="2559.07" rx="1964.37" ry="169.03"/><ellipse class="cls-17" cx="2389.09" cy="2558.97" rx="1964.37" ry="169.03"/><ellipse class="cls-17" cx="2389.09" cy="2558.87" rx="1964.37" ry="169.03"/><ellipse class="cls-17" cx="2389.09" cy="2558.77" rx="1964.37" ry="169.03"/><ellipse class="cls-17" cx="2389.09" cy="2558.67" rx="1964.37" ry="169.03"/><ellipse class="cls-17" cx="2389.09" cy="2558.57" rx="1964.37" ry="169.03"/><ellipse class="cls-17" cx="2389.09" cy="2558.47" rx="1964.37" ry="169.03"/><ellipse class="cls-17" cx="2389.09" cy="2558.37" rx="1964.37" ry="169.03"/><ellipse class="cls-17" cx="2389.09" cy="2558.27" rx="1964.37" ry="169.03"/><ellipse class="cls-17" cx="2389.09" cy="2558.17" rx="1964.37" ry="169.03"/><ellipse class="cls-17" cx="2389.09" cy="2558.07" rx="1964.37" ry="169.03"/><ellipse class="cls-17" cx="2389.09" cy="2557.97" rx="1964.37" ry="169.03"/><ellipse class="cls-17" cx="2389.09" cy="2557.87" rx="1964.37" ry="169.03"/><ellipse class="cls-17" cx="2389.09" cy="2557.77" rx="1964.37" ry="169.03"/><ellipse class="cls-17" cx="2389.09" cy="2557.67" rx="1964.37" ry="169.03"/><ellipse class="cls-17" cx="2389.09" cy="2557.57" rx="1964.37" ry="169.03"/><ellipse class="cls-17" cx="2389.09" cy="2557.47" rx="1964.37" ry="169.03"/><ellipse class="cls-17" cx="2389.09" cy="2557.37" rx="1964.37" ry="169.03"/><ellipse class="cls-17" cx="2389.09" cy="2557.27" rx="1964.37" ry="169.03"/><ellipse class="cls-17" cx="2389.09" cy="2557.17" rx="1964.37" ry="169.03"/><ellipse class="cls-17" cx="2389.09" cy="2557.07" rx="1964.37" ry="169.03"/><ellipse class="cls-17" cx="2389.09" cy="2556.97" rx="1964.37" ry="169.03"/><ellipse class="cls-17" cx="2389.09" cy="2556.87" rx="1964.37" ry="169.03"/><ellipse class="cls-17" cx="2389.09" cy="2556.77" rx="1964.37" ry="169.03"/><ellipse class="cls-17" cx="2389.09" cy="2556.67" rx="1964.37" ry="169.03"/><ellipse class="cls-17" cx="2389.09" cy="2556.57" rx="1964.37" ry="169.03"/><ellipse class="cls-17" cx="2389.09" cy="2556.47" rx="1964.37" ry="169.03"/><ellipse class="cls-17" cx="2389.09" cy="2556.37" rx="1964.37" ry="169.03"/><ellipse class="cls-17" cx="2389.09" cy="2556.27" rx="1964.37" ry="169.03"/><ellipse class="cls-17" cx="2389.09" cy="2556.17" rx="1964.37" ry="169.03"/><ellipse class="cls-17" cx="2389.09" cy="2556.07" rx="1964.37" ry="169.03"/><ellipse class="cls-17" cx="2389.09" cy="2555.97" rx="1964.37" ry="169.03"/><ellipse class="cls-17" cx="2389.09" cy="2555.87" rx="1964.37" ry="169.03"/><ellipse class="cls-17" cx="2389.09" cy="2555.77" rx="1964.37" ry="169.03"/><ellipse class="cls-17" cx="2389.09" cy="2555.67" rx="1964.37" ry="169.03"/><ellipse class="cls-17" cx="2389.09" cy="2555.57" rx="1964.37" ry="169.03"/><ellipse class="cls-17" cx="2389.09" cy="2555.47" rx="1964.37" ry="169.03"/><ellipse class="cls-17" cx="2389.09" cy="2555.37" rx="1964.37" ry="169.03"/><ellipse class="cls-17" cx="2389.09" cy="2555.27" rx="1964.37" ry="169.03"/><ellipse class="cls-17" cx="2389.09" cy="2555.17" rx="1964.37" ry="169.03"/><ellipse class="cls-17" cx="2389.09" cy="2555.07" rx="1964.37" ry="169.03"/><ellipse class="cls-17" cx="2389.09" cy="2554.97" rx="1964.37" ry="169.03"/><ellipse class="cls-17" cx="2389.09" cy="2554.87" rx="1964.37" ry="169.03"/><ellipse class="cls-17" cx="2389.09" cy="2554.77" rx="1964.37" ry="169.03"/><ellipse class="cls-17" cx="2389.09" cy="2554.67" rx="1964.37" ry="169.03"/><ellipse class="cls-17" cx="2389.09" cy="2554.57" rx="1964.37" ry="169.03"/><ellipse class="cls-17" cx="2389.09" cy="2554.47" rx="1964.37" ry="169.03"/><ellipse class="cls-17" cx="2389.09" cy="2554.37" rx="1964.37" ry="169.03"/><ellipse class="cls-17" cx="2389.09" cy="2554.27" rx="1964.37" ry="169.03"/><ellipse class="cls-17" cx="2389.09" cy="2554.17" rx="1964.37" ry="169.03"/><ellipse class="cls-17" cx="2389.09" cy="2554.07" rx="1964.37" ry="169.03"/><ellipse class="cls-17" cx="2389.09" cy="2553.97" rx="1964.37" ry="169.03"/><ellipse class="cls-17" cx="2389.09" cy="2553.87" rx="1964.37" ry="169.03"/><ellipse class="cls-17" cx="2389.09" cy="2553.77" rx="1964.37" ry="169.03"/><ellipse class="cls-17" cx="2389.09" cy="2553.67" rx="1964.37" ry="169.03"/><ellipse class="cls-17" cx="2389.09" cy="2553.57" rx="1964.37" ry="169.03"/><ellipse class="cls-17" cx="2389.09" cy="2553.47" rx="1964.37" ry="169.03"/><ellipse class="cls-17" cx="2389.09" cy="2553.37" rx="1964.37" ry="169.03"/><ellipse class="cls-17" cx="2389.09" cy="2553.27" rx="1964.37" ry="169.03"/><ellipse class="cls-17" cx="2389.09" cy="2553.17" rx="1964.37" ry="169.03"/><ellipse class="cls-17" cx="2389.09" cy="2553.07" rx="1964.37" ry="169.03"/><ellipse class="cls-17" cx="2389.09" cy="2552.97" rx="1964.37" ry="169.03"/><ellipse class="cls-17" cx="2389.09" cy="2552.87" rx="1964.37" ry="169.03"/><ellipse class="cls-17" cx="2389.09" cy="2552.77" rx="1964.37" ry="169.03"/><ellipse class="cls-17" cx="2389.09" cy="2552.67" rx="1964.37" ry="169.03"/><ellipse class="cls-17" cx="2389.09" cy="2552.57" rx="1964.37" ry="169.03"/><ellipse class="cls-17" cx="2389.09" cy="2552.47" rx="1964.37" ry="169.03"/><ellipse class="cls-17" cx="2389.09" cy="2552.37" rx="1964.37" ry="169.03"/><ellipse class="cls-17" cx="2389.09" cy="2552.27" rx="1964.37" ry="169.03"/><ellipse class="cls-17" cx="2389.09" cy="2552.17" rx="1964.37" ry="169.03"/><ellipse class="cls-17" cx="2389.09" cy="2552.07" rx="1964.37" ry="169.03"/><ellipse class="cls-17" cx="2389.09" cy="2551.97" rx="1964.37" ry="169.03"/><ellipse class="cls-17" cx="2389.09" cy="2551.87" rx="1964.37" ry="169.03"/><ellipse class="cls-17" cx="2389.09" cy="2551.77" rx="1964.37" ry="169.03"/><ellipse class="cls-17" cx="2389.09" cy="2551.67" rx="1964.37" ry="169.03"/><ellipse class="cls-17" cx="2389.09" cy="2551.57" rx="1964.37" ry="169.03"/><ellipse class="cls-17" cx="2389.09" cy="2551.47" rx="1964.37" ry="169.03"/><ellipse class="cls-17" cx="2389.09" cy="2551.37" rx="1964.37" ry="169.03"/><ellipse class="cls-17" cx="2389.09" cy="2551.27" rx="1964.37" ry="169.03"/><ellipse class="cls-17" cx="2389.09" cy="2551.17" rx="1964.37" ry="169.03"/><ellipse class="cls-17" cx="2389.09" cy="2551.07" rx="1964.37" ry="169.03"/><ellipse class="cls-17" cx="2389.09" cy="2550.97" rx="1964.37" ry="169.03"/><ellipse class="cls-17" cx="2389.09" cy="2550.87" rx="1964.37" ry="169.03"/><ellipse class="cls-17" cx="2389.09" cy="2550.77" rx="1964.37" ry="169.03"/><ellipse class="cls-17" cx="2389.09" cy="2550.67" rx="1964.37" ry="169.03"/><ellipse class="cls-17" cx="2389.09" cy="2550.57" rx="1964.37" ry="169.03"/><ellipse class="cls-17" cx="2389.09" cy="2550.47" rx="1964.37" ry="169.03"/><ellipse class="cls-17" cx="2389.09" cy="2550.37" rx="1964.37" ry="169.03"/><ellipse class="cls-17" cx="2389.09" cy="2550.27" rx="1964.37" ry="169.03"/><ellipse class="cls-17" cx="2389.09" cy="2550.17" rx="1964.37" ry="169.03"/><ellipse class="cls-17" cx="2389.09" cy="2550.07" rx="1964.37" ry="169.03"/><ellipse class="cls-17" cx="2389.09" cy="2549.97" rx="1964.37" ry="169.03"/><ellipse class="cls-17" cx="2389.09" cy="2549.87" rx="1964.37" ry="169.03"/><ellipse class="cls-17" cx="2389.09" cy="2549.77" rx="1964.37" ry="169.03"/><ellipse class="cls-17" cx="2389.09" cy="2549.67" rx="1964.37" ry="169.03"/><ellipse class="cls-17" cx="2389.09" cy="2549.57" rx="1964.37" ry="169.03"/><ellipse class="cls-17" cx="2389.09" cy="2549.47" rx="1964.37" ry="169.03"/><ellipse class="cls-17" cx="2389.09" cy="2549.37" rx="1964.37" ry="169.03"/><ellipse class="cls-17" cx="2389.09" cy="2549.27" rx="1964.37" ry="169.03"/><ellipse class="cls-17" cx="2389.09" cy="2549.17" rx="1964.37" ry="169.03"/><ellipse class="cls-17" cx="2389.09" cy="2549.07" rx="1964.37" ry="169.03"/><ellipse class="cls-17" cx="2389.09" cy="2548.97" rx="1964.37" ry="169.03"/><ellipse class="cls-17" cx="2389.09" cy="2548.87" rx="1964.37" ry="169.03"/><ellipse class="cls-17" cx="2389.09" cy="2548.77" rx="1964.37" ry="169.03"/><ellipse class="cls-17" cx="2389.09" cy="2548.67" rx="1964.37" ry="169.03"/><ellipse class="cls-17" cx="2389.09" cy="2548.57" rx="1964.37" ry="169.03"/><ellipse class="cls-17" cx="2389.09" cy="2548.47" rx="1964.37" ry="169.03"/><ellipse class="cls-17" cx="2389.09" cy="2548.37" rx="1964.37" ry="169.03"/><ellipse class="cls-17" cx="2389.09" cy="2548.27" rx="1964.37" ry="169.03"/><ellipse class="cls-17" cx="2389.09" cy="2548.17" rx="1964.37" ry="169.03"/><ellipse class="cls-17" cx="2389.09" cy="2548.07" rx="1964.37" ry="169.03"/><ellipse class="cls-17" cx="2389.09" cy="2547.97" rx="1964.37" ry="169.03"/><ellipse class="cls-17" cx="2389.09" cy="2547.87" rx="1964.37" ry="169.03"/><ellipse class="cls-17" cx="2389.09" cy="2547.77" rx="1964.37" ry="169.03"/><ellipse class="cls-17" cx="2389.09" cy="2547.67" rx="1964.37" ry="169.03"/><ellipse class="cls-17" cx="2389.09" cy="2547.57" rx="1964.37" ry="169.03"/><ellipse class="cls-17" cx="2389.09" cy="2547.47" rx="1964.37" ry="169.03"/><ellipse class="cls-17" cx="2389.09" cy="2547.37" rx="1964.37" ry="169.03"/><ellipse class="cls-17" cx="2389.09" cy="2547.27" rx="1964.37" ry="169.03"/><ellipse class="cls-17" cx="2389.09" cy="2547.17" rx="1964.37" ry="169.03"/><ellipse class="cls-17" cx="2389.09" cy="2547.07" rx="1964.37" ry="169.03"/><ellipse class="cls-17" cx="2389.09" cy="2546.97" rx="1964.37" ry="169.03"/><ellipse class="cls-17" cx="2389.09" cy="2546.87" rx="1964.37" ry="169.03"/><ellipse class="cls-17" cx="2389.09" cy="2546.77" rx="1964.37" ry="169.03"/><ellipse class="cls-17" cx="2389.09" cy="2546.67" rx="1964.37" ry="169.03"/><ellipse class="cls-17" cx="2389.09" cy="2546.57" rx="1964.37" ry="169.03"/><ellipse class="cls-17" cx="2389.09" cy="2546.47" rx="1964.37" ry="169.03"/><ellipse class="cls-17" cx="2389.09" cy="2546.37" rx="1964.37" ry="169.03"/><ellipse class="cls-17" cx="2389.09" cy="2546.27" rx="1964.37" ry="169.03"/><ellipse class="cls-17" cx="2389.09" cy="2546.17" rx="1964.37" ry="169.03"/><ellipse class="cls-17" cx="2389.09" cy="2546.07" rx="1964.37" ry="169.03"/><ellipse class="cls-17" cx="2389.09" cy="2545.97" rx="1964.37" ry="169.03"/><ellipse class="cls-17" cx="2389.09" cy="2545.87" rx="1964.37" ry="169.03"/><ellipse class="cls-17" cx="2389.09" cy="2545.77" rx="1964.37" ry="169.03"/><ellipse class="cls-17" cx="2389.09" cy="2545.67" rx="1964.37" ry="169.03"/><ellipse class="cls-17" cx="2389.09" cy="2545.57" rx="1964.37" ry="169.03"/><ellipse class="cls-17" cx="2389.09" cy="2545.47" rx="1964.37" ry="169.03"/><ellipse class="cls-17" cx="2389.09" cy="2545.37" rx="1964.37" ry="169.03"/><ellipse class="cls-17" cx="2389.09" cy="2545.27" rx="1964.37" ry="169.03"/><ellipse class="cls-17" cx="2389.09" cy="2545.17" rx="1964.37" ry="169.03"/><ellipse class="cls-17" cx="2389.09" cy="2545.07" rx="1964.37" ry="169.03"/><ellipse class="cls-17" cx="2389.09" cy="2544.97" rx="1964.37" ry="169.03"/><ellipse class="cls-17" cx="2389.09" cy="2544.87" rx="1964.37" ry="169.03"/><ellipse class="cls-17" cx="2389.09" cy="2544.77" rx="1964.37" ry="169.03"/><ellipse class="cls-17" cx="2389.09" cy="2544.67" rx="1964.37" ry="169.03"/><ellipse class="cls-17" cx="2389.09" cy="2544.57" rx="1964.37" ry="169.03"/><ellipse class="cls-17" cx="2389.09" cy="2544.47" rx="1964.37" ry="169.03"/><ellipse class="cls-17" cx="2389.09" cy="2544.37" rx="1964.37" ry="169.03"/><ellipse class="cls-17" cx="2389.09" cy="2544.27" rx="1964.37" ry="169.03"/><ellipse class="cls-17" cx="2389.09" cy="2544.17" rx="1964.37" ry="169.03"/><ellipse class="cls-17" cx="2389.09" cy="2544.07" rx="1964.37" ry="169.03"/><ellipse class="cls-17" cx="2389.09" cy="2543.97" rx="1964.37" ry="169.03"/><ellipse class="cls-17" cx="2389.09" cy="2543.87" rx="1964.37" ry="169.03"/><ellipse class="cls-17" cx="2389.09" cy="2543.77" rx="1964.37" ry="169.03"/><ellipse class="cls-17" cx="2389.09" cy="2543.67" rx="1964.37" ry="169.03"/><ellipse class="cls-17" cx="2389.09" cy="2543.57" rx="1964.37" ry="169.03"/><ellipse class="cls-17" cx="2389.09" cy="2543.47" rx="1964.37" ry="169.03"/><ellipse class="cls-17" cx="2389.09" cy="2543.37" rx="1964.37" ry="169.03"/><ellipse class="cls-17" cx="2389.09" cy="2543.27" rx="1964.37" ry="169.03"/><ellipse class="cls-17" cx="2389.09" cy="2543.17" rx="1964.37" ry="169.03"/><ellipse class="cls-17" cx="2389.09" cy="2543.07" rx="1964.37" ry="169.03"/><ellipse class="cls-17" cx="2389.09" cy="2542.97" rx="1964.37" ry="169.03"/><ellipse class="cls-17" cx="2389.09" cy="2542.87" rx="1964.37" ry="169.03"/><ellipse class="cls-17" cx="2389.09" cy="2542.77" rx="1964.37" ry="169.03"/><ellipse class="cls-17" cx="2389.09" cy="2542.67" rx="1964.37" ry="169.03"/><ellipse class="cls-17" cx="2389.09" cy="2542.57" rx="1964.37" ry="169.03"/><ellipse class="cls-17" cx="2389.09" cy="2542.47" rx="1964.37" ry="169.03"/><ellipse class="cls-17" cx="2389.09" cy="2542.37" rx="1964.37" ry="169.03"/><ellipse class="cls-17" cx="2389.09" cy="2542.27" rx="1964.37" ry="169.03"/><ellipse class="cls-17" cx="2389.09" cy="2542.17" rx="1964.37" ry="169.03"/><ellipse class="cls-17" cx="2389.09" cy="2542.07" rx="1964.37" ry="169.03"/><ellipse class="cls-17" cx="2389.09" cy="2541.97" rx="1964.37" ry="169.03"/><ellipse class="cls-17" cx="2389.09" cy="2541.87" rx="1964.37" ry="169.03"/><ellipse class="cls-17" cx="2389.09" cy="2541.77" rx="1964.37" ry="169.03"/><ellipse class="cls-17" cx="2389.09" cy="2541.67" rx="1964.37" ry="169.03"/><ellipse class="cls-17" cx="2389.09" cy="2541.57" rx="1964.37" ry="169.03"/><ellipse class="cls-17" cx="2389.09" cy="2541.47" rx="1964.37" ry="169.03"/><ellipse class="cls-17" cx="2389.09" cy="2541.37" rx="1964.37" ry="169.03"/><ellipse class="cls-17" cx="2389.09" cy="2541.27" rx="1964.37" ry="169.03"/><ellipse class="cls-17" cx="2389.09" cy="2541.17" rx="1964.37" ry="169.03"/><ellipse class="cls-17" cx="2389.09" cy="2541.07" rx="1964.37" ry="169.03"/><ellipse class="cls-17" cx="2389.09" cy="2540.97" rx="1964.37" ry="169.03"/><ellipse class="cls-17" cx="2389.09" cy="2540.87" rx="1964.37" ry="169.03"/><ellipse class="cls-17" cx="2389.09" cy="2540.77" rx="1964.37" ry="169.03"/><ellipse class="cls-17" cx="2389.09" cy="2540.67" rx="1964.37" ry="169.03"/><ellipse class="cls-17" cx="2389.09" cy="2540.57" rx="1964.37" ry="169.03"/><ellipse class="cls-17" cx="2389.09" cy="2540.47" rx="1964.37" ry="169.03"/><ellipse class="cls-17" cx="2389.09" cy="2540.37" rx="1964.37" ry="169.03"/><ellipse class="cls-17" cx="2389.09" cy="2540.27" rx="1964.37" ry="169.03"/><ellipse class="cls-17" cx="2389.09" cy="2540.17" rx="1964.37" ry="169.03"/><ellipse class="cls-17" cx="2389.09" cy="2540.07" rx="1964.37" ry="169.03"/><ellipse class="cls-17" cx="2389.09" cy="2539.97" rx="1964.37" ry="169.03"/><ellipse class="cls-17" cx="2389.09" cy="2539.87" rx="1964.37" ry="169.03"/><ellipse class="cls-17" cx="2389.09" cy="2539.77" rx="1964.37" ry="169.03"/><ellipse class="cls-17" cx="2389.09" cy="2539.67" rx="1964.37" ry="169.03"/><ellipse class="cls-17" cx="2389.09" cy="2539.57" rx="1964.37" ry="169.03"/><ellipse class="cls-17" cx="2389.09" cy="2539.47" rx="1964.37" ry="169.03"/><ellipse class="cls-17" cx="2389.09" cy="2539.37" rx="1964.37" ry="169.03"/><ellipse class="cls-17" cx="2389.09" cy="2539.27" rx="1964.37" ry="169.03"/><ellipse class="cls-17" cx="2389.09" cy="2539.17" rx="1964.37" ry="169.03"/><ellipse class="cls-17" cx="2389.09" cy="2539.07" rx="1964.37" ry="169.03"/><ellipse class="cls-17" cx="2389.09" cy="2538.97" rx="1964.37" ry="169.03"/><ellipse class="cls-17" cx="2389.09" cy="2538.87" rx="1964.37" ry="169.03"/><ellipse class="cls-17" cx="2389.09" cy="2538.77" rx="1964.37" ry="169.03"/><ellipse class="cls-17" cx="2389.09" cy="2538.67" rx="1964.37" ry="169.03"/><ellipse class="cls-17" cx="2389.09" cy="2538.57" rx="1964.37" ry="169.03"/><ellipse class="cls-17" cx="2389.09" cy="2538.47" rx="1964.37" ry="169.03"/><ellipse class="cls-17" cx="2389.09" cy="2538.37" rx="1964.37" ry="169.03"/><ellipse class="cls-17" cx="2389.09" cy="2538.27" rx="1964.37" ry="169.03"/><ellipse class="cls-17" cx="2389.09" cy="2538.17" rx="1964.37" ry="169.03"/><ellipse class="cls-17" cx="2389.09" cy="2538.07" rx="1964.37" ry="169.03"/><ellipse class="cls-17" cx="2389.09" cy="2537.97" rx="1964.37" ry="169.03"/><ellipse class="cls-17" cx="2389.09" cy="2537.87" rx="1964.37" ry="169.03"/><ellipse class="cls-17" cx="2389.09" cy="2537.77" rx="1964.37" ry="169.03"/><ellipse class="cls-17" cx="2389.09" cy="2537.67" rx="1964.37" ry="169.03"/><ellipse class="cls-17" cx="2389.09" cy="2537.57" rx="1964.37" ry="169.03"/><ellipse class="cls-17" cx="2389.09" cy="2537.47" rx="1964.37" ry="169.03"/><ellipse class="cls-17" cx="2389.09" cy="2537.37" rx="1964.37" ry="169.03"/><ellipse class="cls-17" cx="2389.09" cy="2537.27" rx="1964.37" ry="169.03"/><ellipse class="cls-17" cx="2389.09" cy="2537.17" rx="1964.37" ry="169.03"/><ellipse class="cls-17" cx="2389.09" cy="2537.07" rx="1964.37" ry="169.03"/><ellipse class="cls-17" cx="2389.09" cy="2536.97" rx="1964.37" ry="169.03"/><ellipse class="cls-17" cx="2389.09" cy="2536.87" rx="1964.37" ry="169.03"/><ellipse class="cls-17" cx="2389.09" cy="2536.77" rx="1964.37" ry="169.03"/><ellipse class="cls-17" cx="2389.09" cy="2536.67" rx="1964.37" ry="169.03"/><ellipse class="cls-17" cx="2389.09" cy="2536.57" rx="1964.37" ry="169.03"/><ellipse class="cls-17" cx="2389.09" cy="2536.47" rx="1964.37" ry="169.03"/><ellipse class="cls-17" cx="2389.09" cy="2536.37" rx="1964.37" ry="169.03"/><ellipse class="cls-17" cx="2389.09" cy="2536.27" rx="1964.37" ry="169.03"/><ellipse class="cls-17" cx="2389.09" cy="2536.17" rx="1964.37" ry="169.03"/><ellipse class="cls-17" cx="2389.09" cy="2536.07" rx="1964.37" ry="169.03"/><ellipse class="cls-17" cx="2389.09" cy="2535.97" rx="1964.37" ry="169.03"/><ellipse class="cls-17" cx="2389.09" cy="2535.87" rx="1964.37" ry="169.03"/><ellipse class="cls-17" cx="2389.09" cy="2535.77" rx="1964.37" ry="169.03"/><ellipse class="cls-17" cx="2389.09" cy="2535.67" rx="1964.37" ry="169.03"/><ellipse class="cls-17" cx="2389.09" cy="2535.57" rx="1964.37" ry="169.03"/><ellipse class="cls-17" cx="2389.09" cy="2535.47" rx="1964.37" ry="169.03"/><ellipse class="cls-17" cx="2389.09" cy="2535.37" rx="1964.37" ry="169.03"/><ellipse class="cls-17" cx="2389.09" cy="2535.27" rx="1964.37" ry="169.03"/><ellipse class="cls-17" cx="2389.09" cy="2535.17" rx="1964.37" ry="169.03"/><ellipse class="cls-17" cx="2389.09" cy="2535.07" rx="1964.37" ry="169.03"/><ellipse class="cls-17" cx="2389.09" cy="2534.97" rx="1964.37" ry="169.03"/><ellipse class="cls-17" cx="2389.09" cy="2534.87" rx="1964.37" ry="169.03"/><ellipse class="cls-17" cx="2389.09" cy="2534.77" rx="1964.37" ry="169.03"/><ellipse class="cls-17" cx="2389.09" cy="2534.67" rx="1964.37" ry="169.03"/><ellipse class="cls-17" cx="2389.09" cy="2534.57" rx="1964.37" ry="169.03"/><ellipse class="cls-17" cx="2389.09" cy="2534.47" rx="1964.37" ry="169.03"/><ellipse class="cls-17" cx="2389.09" cy="2534.37" rx="1964.37" ry="169.03"/><ellipse class="cls-17" cx="2389.09" cy="2534.27" rx="1964.37" ry="169.03"/><ellipse class="cls-17" cx="2389.09" cy="2534.17" rx="1964.37" ry="169.03"/><ellipse class="cls-17" cx="2389.09" cy="2534.07" rx="1964.37" ry="169.03"/><ellipse class="cls-17" cx="2389.09" cy="2533.97" rx="1964.37" ry="169.03"/><ellipse class="cls-17" cx="2389.09" cy="2533.87" rx="1964.37" ry="169.03"/><ellipse class="cls-17" cx="2389.09" cy="2533.77" rx="1964.37" ry="169.03"/><ellipse class="cls-17" cx="2389.09" cy="2533.67" rx="1964.37" ry="169.03"/><ellipse class="cls-17" cx="2389.09" cy="2533.57" rx="1964.37" ry="169.03"/><ellipse class="cls-17" cx="2389.09" cy="2533.47" rx="1964.37" ry="169.03"/><ellipse class="cls-17" cx="2389.09" cy="2533.37" rx="1964.37" ry="169.03"/><ellipse class="cls-17" cx="2389.09" cy="2533.27" rx="1964.37" ry="169.03"/><ellipse class="cls-17" cx="2389.09" cy="2533.17" rx="1964.37" ry="169.03"/><ellipse class="cls-17" cx="2389.09" cy="2533.07" rx="1964.37" ry="169.03"/><ellipse class="cls-17" cx="2389.09" cy="2532.97" rx="1964.37" ry="169.03"/><ellipse class="cls-17" cx="2389.09" cy="2532.87" rx="1964.37" ry="169.03"/><ellipse class="cls-17" cx="2389.09" cy="2532.77" rx="1964.37" ry="169.03"/><ellipse class="cls-17" cx="2389.09" cy="2532.67" rx="1964.37" ry="169.03"/><ellipse class="cls-17" cx="2389.09" cy="2532.57" rx="1964.37" ry="169.03"/><ellipse class="cls-17" cx="2389.09" cy="2532.47" rx="1964.37" ry="169.03"/><ellipse class="cls-17" cx="2389.09" cy="2532.37" rx="1964.37" ry="169.03"/><ellipse class="cls-17" cx="2389.09" cy="2532.27" rx="1964.37" ry="169.03"/><ellipse class="cls-17" cx="2389.09" cy="2532.17" rx="1964.37" ry="169.03"/><ellipse class="cls-17" cx="2389.09" cy="2532.07" rx="1964.37" ry="169.03"/><ellipse class="cls-17" cx="2389.09" cy="2531.97" rx="1964.37" ry="169.03"/><ellipse class="cls-17" cx="2389.09" cy="2531.87" rx="1964.37" ry="169.03"/><ellipse class="cls-17" cx="2389.09" cy="2531.77" rx="1964.37" ry="169.03"/><ellipse class="cls-17" cx="2389.09" cy="2531.67" rx="1964.37" ry="169.03"/><ellipse class="cls-17" cx="2389.09" cy="2531.57" rx="1964.37" ry="169.03"/><ellipse class="cls-17" cx="2389.09" cy="2531.47" rx="1964.37" ry="169.03"/><ellipse class="cls-17" cx="2389.09" cy="2531.37" rx="1964.37" ry="169.03"/><ellipse class="cls-21" cx="2389.09" cy="2531.37" rx="1964.37" ry="169.03"/><rect class="cls-10" x="3259.41" y="2224.89" width="303.61" height="22" transform="translate(615.01 5205.21) rotate(-79.96)"/><rect class="cls-10" x="3385.95" y="2106.82" width="91.3" height="34.1" transform="translate(742.19 5132.83) rotate(-79.96)"/><polygon class="cls-9" points="3362.92 2121.07 3337.55 2423.62 3359.47 2425.46 3384.85 2122.91 3376.19 2101.72 3362.92 2121.07"/><polygon class="cls-17" points="3256.88 2124.87 3249.39 2147.11 3307.41 2445.12 3329 2440.92 3270.98 2142.9 3256.88 2124.87"/><polygon class="cls-22" points="3283.52 2510.24 3377.55 2510.24 3408.39 2261.31 3252.69 2261.31 3283.52 2510.24"/><polygon class="cls-23" points="3318.98 2510.24 3413.01 2510.24 3443.84 2261.31 3305.1 2261.31 3318.98 2510.24"/><path class="cls-20" d="M821,1125a16.85,16.85,0,0,0-20.89-11.48L338.7,1247.64a16.85,16.85,0,0,0-11.48,20.89l10.46,36A16.85,16.85,0,0,0,358.57,1316L820,1181.85A16.85,16.85,0,0,0,831.49,1161Z"/><path class="cls-20" d="M988.27,1700.22a16.85,16.85,0,0,0-20.89-11.48L505.93,1822.89a16.87,16.87,0,0,0-11.48,20.89l10.47,36a16.85,16.85,0,0,0,20.89,11.48L987.25,1757.1a16.85,16.85,0,0,0,11.48-20.89Z"/><path class="cls-4" d="M618.38,1515.33l-8.62-29.67c-3-10.43-12.78-16.76-21.78-14.14l-.49.14c-69.48,20.2-144.78-28.72-168.19-109.25l-17.17-59.07L372.34,1312l17.17,59.07A151.85,151.85,0,0,0,577.72,1474.5l.57-.17a19.67,19.67,0,0,1,24.37,13.39l8.63,29.68,8.62,29.67a19.66,19.66,0,0,1-13.39,24.37l-.57.16a151.86,151.86,0,0,0-103.42,188.22l17.17,59.07,29.79-8.66-17.17-59.07c-23.42-80.54,13.92-162.2,83.4-182.4l.49-.14c9-2.61,13.83-13.19,10.8-23.62Z"/><path class="cls-4" d="M748.23,1530.24a19.66,19.66,0,0,1-24.37-13.39l-8.63-29.67-8.63-29.67a19.68,19.68,0,0,1,13.4-24.38,151.84,151.84,0,0,0,103.42-188.21l-17.17-59.07-29.79,8.66,17.17,59.07c23.42,80.54-13.93,162.2-83.4,182.39-9,2.62-13.83,13.19-10.8,23.62l8.62,29.67,8.63,29.68c3,10.42,12.78,16.76,21.78,14.14,69.48-20.2,144.78,28.71,168.19,109.25l17.17,59.07,29.79-8.66-17.17-59.07A151.85,151.85,0,0,0,748.23,1530.24Z"/><path class="cls-18" d="M738.46,1533.08c-9,2.62-18.75-3.72-21.78-14.14l-8.63-29.68-8.62-29.67c-3-10.43,1.8-21,10.8-23.62,69.47-20.19,106.82-101.85,83.4-182.39l-17.17-59.07L402.13,1303.34l17.17,59.07c23.41,80.53,98.71,129.45,168.19,109.25l.49-.14c9-2.62,18.75,3.71,21.78,14.14l8.62,29.67L627,1545c3,10.43-1.8,21-10.8,23.62l-.49.14c-69.48,20.2-106.82,101.86-83.4,182.4l17.17,59.07L923.82,1701.4l-17.17-59.07C883.24,1561.79,807.94,1512.88,738.46,1533.08Z"/><path class="cls-9" d="M774.89,1622A67.49,67.49,0,0,1,691.33,1576l-30.58-105.2a67.49,67.49,0,0,1,45.92-83.56,104,104,0,0,0,67.9-62.25L473.7,1412.5a104,104,0,0,0,90.69,16.14l.57-.16a67.5,67.5,0,0,1,83.56,45.91l30.58,105.2a67.49,67.49,0,0,1-45.92,83.56l-.56.17a104.21,104.21,0,0,0-70.91,129l3.85,13.22,342.2-99.49-3.85-13.22A104.22,104.22,0,0,0,774.89,1622Z"/><path class="cls-24" d="M601.23,1591.66,582,1597.25a8.42,8.42,0,0,0-4.44,3.07,126.4,126.4,0,0,0-18,36A8.41,8.41,0,0,0,570,1646.81l31-9a8.4,8.4,0,0,0,6-7.41,150.75,150.75,0,0,1,4.71-28.52A8.4,8.4,0,0,0,601.23,1591.66Z"/><path class="cls-24" d="M499.47,1316.27A22.49,22.49,0,0,0,471.61,1301l-15.46,4.5a22.47,22.47,0,0,0-15.31,27.85l.26.9A22.49,22.49,0,0,0,469,1349.52l15.46-4.5a22.49,22.49,0,0,0,15.3-27.88Z"/><path class="cls-24" d="M638.94,1509.36l-8.63-29.67c-3-10.43-9.42-17.74-14.26-16.33l-.27.07c-30.5,8.87-68.87-27-94.71-84a22.58,22.58,0,0,0-26.84-12.53l-12.52,3.64c-14.16,4.12-20.74,20.61-13,33.15,31.31,50.81,81.91,78.74,127.85,65.38l.42-.12c7.66-2.23,16.34,4.42,19.37,14.85l8.62,29.67,5.53,19a7.27,7.27,0,1,0,14-4.06Z"/><path class="cls-24" d="M618.6,1726.07c-3-10.19-5.36-20.27-7.23-30.14a19.62,19.62,0,0,0-24.78-15.18L567,1686.44a19.58,19.58,0,0,0-14.1,20.7,204.27,204.27,0,0,0,7.07,36l4,13.74a19.67,19.67,0,0,0,24.37,13.39l20.86-6.07a19.67,19.67,0,0,0,13.4-24.37Z"/><path class="cls-18" d="M1927.68,1819.08l4.16,488.38,101.8-17a209.21,209.21,0,0,0,93.91-41.2l32.1-14.62-125.86-432.94Z"/><path class="cls-18" d="M3172.75,1874.48h-689.9a31.09,31.09,0,0,0-30,23l-132,494.63s-237.68,14.21-265.34,15.51-33.29,25.59-33.29,25.59H3065.86a46.46,46.46,0,0,0,45.67-38l8-43,82-442.7A29.38,29.38,0,0,0,3172.75,1874.48Z"/><path class="cls-5" d="M3172.75,1874.48H2740.27c-12.88,95.83-19.78,293.61,122.54,377.63,120.34,71,208.11,93.39,256.68,100.19l82-442.7A29.38,29.38,0,0,0,3172.75,1874.48Z"/><path class="cls-9" d="M2452.83,1897.53l-132,494.63h35s111.39-421.53,128-474.49c6.62-21.05,13.23-34.56,18.83-43.19h-19.79A31.09,31.09,0,0,0,2452.83,1897.53Z"/><ellipse class="cls-10" cx="2798.04" cy="2163.88" rx="96.18" ry="76.46" transform="translate(220.08 4585.77) rotate(-80.93)"/><path class="cls-15" d="M2049.71,2316.24c-10.34-7-107.55,9.7-140.39,12.38-47.33-6.9-353.06-52.2-366.81-72.91-14.91-22.45,3.22-607.82-34.06-619.23,0,0-156.7-26.84-213.3,84-31.21,61.08,47,688.69,102.17,720,105.49,59.79,507.46-1.26,536.76-5.81a15.89,15.89,0,0,0,5,4.16c47.21,22.11,107.56-58.4,174.6,1.91,28.35,25.51,73.17-2.76,67.5-23.21C2176.5,2400.55,2062.13,2324.65,2049.71,2316.24Z"/><path class="cls-16" d="M1915.46,2412.56c-11.13-14.66-203,3.26-265.6,0s-182.16-1.63-215.53-45.6-66.75-526-64-591.11c1.47-34.51-21.65-69.48-49.51-91.1a142.58,142.58,0,0,0-25.7,35.7c-31.21,61.08,47,688.69,102.17,720,105.49,59.79,507.46-1.26,536.76-5.81a15.89,15.89,0,0,0,5,4.16l1.19.52C1932.18,2431.43,1921.66,2420.73,1915.46,2412.56Z"/><path class="cls-18" d="M1546.48,1509.33s-191.41,10.51-237.77,73.9c-66,90.25-35,473.17,4.17,681.56,15.58,82.91,56.37,134.87,56.37,134.87s106-92.59,199.72-139.17c0,0-7.81-392.06-23.17-452.93C1532.17,1753.53,1546.48,1509.33,1546.48,1509.33Z"/><path class="cls-25" d="M1900,1723.63s38.06,137.78,56.27,185.29-25.12,395.83-25.12,395.83l126.39-20.2s-59.9-304.37-73.14-374.05S1900,1723.63,1900,1723.63Z"/><path class="cls-25" d="M1578.9,1524.09s99.3,104.52,211.84,41.17C1790.74,1565.26,1630.21,1573.18,1578.9,1524.09Z"/><path class="cls-25" d="M1432.32,1680.38c-3.85,113.45-4.49,209.57-10.07,334.81s10.06,275.48,8,335.49c69.12-53.68,129.5-85.21,129.5-85.21s-23.92-332.8-43.78-385.06S1432.32,1680.38,1432.32,1680.38Z"/><rect class="cls-5" x="650.89" y="2363.71" width="678.48" height="144.35"/><rect class="cls-26" x="1017.39" y="2362.07" width="313.77" height="147.63"/><rect class="cls-18" x="651.48" y="2389.39" width="679.07" height="1.77"/><rect class="cls-18" x="651.48" y="2418.42" width="679.07" height="1.77"/><rect class="cls-18" x="651.48" y="2447.46" width="679.07" height="1.77"/><rect class="cls-18" x="651.48" y="2476.49" width="679.07" height="1.77"/><path class="cls-18" d="M3270.48,685h-555c-158.73,0-287.4,128.68-287.4,287.4v257.67c0,118.51,71.72,220.25,174.13,264.21l-45.3,122.3,203.44-99.1h510.11c158.73,0,287.4-128.68,287.4-287.41V972.38C3557.88,813.66,3429.21,685,3270.48,685Z"/><g class="cls-27"><path class="cls-9" d="M3177.28,1079.61l-94.14-37.93-81.33-9.18-140.75,52.62a284.4,284.4,0,0,0-171.43,180.1l-77.38,243a157.86,157.86,0,0,0,3.62,106l10.77,27.23,149.55-79.57,48.52-100.35L3228.22,1448S3238.53,1104.28,3177.28,1079.61Z"/><path class="cls-9" d="M3177.28,1079.61l-94.14-37.93-81.33-9.18-140.75,52.62a284.4,284.4,0,0,0-171.43,180.1l-77.38,243c-11.05,34.69-46.08,196.73-46.08,196.73l180.23-74.2,78.31-169.24L3228.22,1448S3238.53,1104.28,3177.28,1079.61Z"/><path class="cls-28" d="M3001.81,1032.5l-82.44,30.82c3.15,2.43,4.76,12.35,9.4,14.69,0,0,24.78,28.75,69.9,31s65-4.86,65-4.86l61.49,180,1.58-224.89-43.62-17.58Z"/><path class="cls-28" d="M2688.93,1607l67.21,6.56,68.57-152s48.62-126.41,41.58-142.84S2691,1602.64,2688.93,1607Z"/><path class="cls-20" d="M3252.81,1354.52l-71.62-143.94H2904.74s-59.19,207.8-80,250.88v543.81h240.55l10.65-139.13,4.32,139.13h225.9L3253,1668.06Z"/><rect class="cls-29" x="2974.61" y="1840.67" width="186.99" height="3.05"/><rect class="cls-29" x="2994.59" y="1782.79" width="163.65" height="3.05" transform="matrix(0.01, -1, 1, 0.01, 1274.41, 4850.41)"/><path class="cls-29" d="M3077,1833.8l-2.1-2.22a100.84,100.84,0,0,0,31.42-73v-62.85h3.05v62.85A103.93,103.93,0,0,1,3077,1833.8Z"/><path class="cls-18" d="M2818.67,1681.44v138.79c112.16,0,106.25-137.71,106.25-137.71Z"/><polygon class="cls-30" points="3087.18 1209.7 3121.95 1261.16 3181.45 1247.31 3162.25 1209.7 3087.18 1209.7"/><path class="cls-30" d="M2904.74,1210.58s-4.19,14.68-10.69,37l9.8,14.52,59.5-13.86-19.19-37.61Z"/><polygon class="cls-29" points="2824.72 1668.06 2824.72 1690.69 3258.17 1690.69 3253.01 1668.06 2824.72 1668.06"/><rect class="cls-31" x="3035.93" y="1654.94" width="96.42" height="52.47" rx="15.14"/><rect class="cls-32" x="2974.61" y="1650.55" width="19.8" height="63.93"/><rect class="cls-32" x="2858.63" y="1650.55" width="19.8" height="63.93"/><rect class="cls-32" x="3151.7" y="1650.55" width="19.8" height="63.93"/><path class="cls-18" d="M2925,1319.78s-25.58,156.43,123.11,156.43,123.12-156.43,123.12-156.43Z"/><polygon class="cls-20" points="3101.49 1043.4 3131.19 1248.19 3182.77 1248.19 3156.25 1065.35 3101.49 1043.4"/><polygon class="cls-20" points="2886 1070.53 2911.77 1248.19 2963.35 1248.19 2934.78 1051.3 2886 1070.53"/><path class="cls-33" d="M3155.12,1239.62a9.36,9.36,0,1,1,9.36-9.36A9.37,9.37,0,0,1,3155.12,1239.62Zm0-15.74a6.38,6.38,0,1,0,6.38,6.38A6.38,6.38,0,0,0,3155.12,1223.88Z"/><path class="cls-33" d="M2934.62,1239.62a9.36,9.36,0,1,1,9.36-9.36A9.37,9.37,0,0,1,2934.62,1239.62Zm0-15.74a6.38,6.38,0,1,0,6.38,6.38A6.38,6.38,0,0,0,2934.62,1223.88Z"/><path class="cls-15" d="M2988.53,983.54l-10.29,84s57.45,41.16,111.47-.86c-.86-36.87-7.72-102-7.72-102Z"/><path class="cls-16" d="M2988.53,983.54l-5.41,44.18c36.28,39.85,93.82-14.29,102.66-23-1.92-22.25-3.79-40.05-3.79-40.05Z"/><path class="cls-17" d="M3164.44,816c-6.37-33.28-38.68-35.24-38.68-35.24,3.92-25.46-21.05-44.55-59.72-40.63s-48.46-17.14-92.52-22.52-63.63,37.2-53.35,73.92,53.35,40.14,53.35,40.14L2977,953.6l107.18,2.94c27.86,0,50.45-21.15,50.45-47.24a44.32,44.32,0,0,0-1.64-11.74C3154.43,876,3168.84,839.05,3164.44,816Z"/><path class="cls-15" d="M3074.29,758.16c-56.4-9.29-91.79,7.92-109.28,65.93-.89,2.94-1.58,5.92-2.31,8.9-3.45,14-6.22,31.23-2.52,39.17,0,0-30.43,73.15,27.87,136.14,6.64,7.18,38.77,3.33,47.76,1.53,75.81-15.16,68.23-98.56,68.23-98.56,1.7-5,29.82-7,31.43-12.19C3150.94,849,3143.18,769.52,3074.29,758.16Z"/><path class="cls-16" d="M3068.49,833.18s-36.32,15.79-49.93,2.44c-14.2-13.92-13.22-32.3-13.22-32.3s-12.79,26.92-43.74,18.38c0,0,19.27,14.58,41.46,8.7,0,0,15,30.68,44.39,26.76,0,0,17,29.13,39.51,25C3077.64,873.6,3069.14,858.79,3068.49,833.18Z"/><path class="cls-16" d="M2959.79,871.16a9.89,9.89,0,0,0,.39,1s-17.61,42.43-.27,90.49c11.6-10.77,19-27.23,19-45.69S2971.46,881.92,2959.79,871.16Z"/><path class="cls-16" d="M3100.25,888.52c-18.84,0-34.12,19.52-34.12,43.6,0,19.38,9.91,35.79,23.6,41.46,17.35-28.49,14.31-62.31,14.31-62.31,1.1-3.25,13.16-5.21,22-7.59C3119.82,894.41,3110.58,888.52,3100.25,888.52Z"/><path class="cls-17" d="M3004.17,945.38l-1.26,3a36.11,36.11,0,0,0,11.44,2.13c9.53.38,24-2,39.69-15.51l-2.15-2.49C3026.72,954.19,3004.39,945.46,3004.17,945.38Z"/><path class="cls-17" d="M3071,852.92c-1-.59-24.42-11.25-29.21-6.46-1.91,1.9-2.2,5.85-.66,8.53,2.6,4.52,8.85,2.61,23.24,6.53,6.75,1.84,9.45,3.37,10.1,2.42C3075.55,862.31,3078.25,857.38,3071,852.92Z"/><path class="cls-17" d="M2972.29,845.49c-6.23,3-6.4,8.55-5.88,10.16.3.93,2.59-.06,8-.75,11.42-1.48,15.72,1.09,18.49-2.57,1.64-2.17,2.15-5.72,1.09-7.68C2991.26,839.72,2973.11,845.1,2972.29,845.49Z"/><path class="cls-17" d="M3053.15,879.36c-2.38-.62-5.1,1.9-6.07,5.63s.16,7.26,2.54,7.88,5.1-1.9,6.07-5.63S3055.53,880,3053.15,879.36Z"/><path class="cls-17" d="M2984.34,870.61c-2.17-.56-4.71,2-5.69,5.72s0,7.19,2.17,7.76,4.71-2,5.69-5.71S2986.51,871.18,2984.34,870.61Z"/><path class="cls-16" d="M3129.75,881.46c-15.14-4.83-31.75,4.84-37.11,21.6s2.59,34.27,17.73,39.1,31.75-4.83,37.1-21.6S3144.89,886.3,3129.75,881.46Z"/><path class="cls-17" d="M3120.57,898.85c-5.13,1.65-9.28,6.14-12.31,13.34l-.83,1.94,2.09.32c3,.47,11.07,2.64,12.67,7.08l3.1-1.12c-2-5.44-9.46-7.88-13.17-8.78,2.51-5.18,5.68-8.42,9.42-9.64a12.75,12.75,0,0,1,9.63,1l1.71-2.81A15.9,15.9,0,0,0,3120.57,898.85Z"/><path class="cls-34" d="M3100.26,898l1-84L3093.34,797S3069.52,892.45,3100.26,898Z"/><path class="cls-17" d="M3011.14,891.31l-.61-3.23c-3.45.64-20.8,4.15-23.47,9.91a4,4,0,0,0,.17,3.85c3.85,6.79,13.13,12.36,13.53,12.6l1.68-2.83c-.09-.05-8.93-5.37-12.35-11.4a.79.79,0,0,1-.05-.83C2991.48,896.27,3003.24,892.79,3011.14,891.31Z"/><path class="cls-17" d="M3116.41,775.54s-21.68-29.12-71.87-28.5-88.59,34.69-87.67,73.42a36.07,36.07,0,0,0,26.65,2.17c14.56-4.65,21.82-19.31,21.82-19.31s-3.24,31.39,20,37.58,41.82-6.81,41.82-6.81,6.19,40.58,19.51,49.25c6.82,5,13.59,14.63,13.59,14.63s4.69-16.49,17.39-15.56,23.86,8.68,23.86,8.68,9.6-61,2.78-83.33S3116.41,775.54,3116.41,775.54Z"/><path class="cls-17" d="M3204.86,880.3l-61.63-19a18.87,18.87,0,0,0-23.09,11l-61,152.83a18.87,18.87,0,0,0,12,25l61.63,19a18.88,18.88,0,0,0,23.09-11l61-152.83A18.87,18.87,0,0,0,3204.86,880.3Z"/><path class="cls-35" d="M3201.2,888.11l-56.11-17.28a17.17,17.17,0,0,0-21,10L3068.53,1020a17.18,17.18,0,0,0,10.9,22.8l56.11,17.29a17.2,17.2,0,0,0,21-10.06l55.53-139.15A17.18,17.18,0,0,0,3201.2,888.11Z"/><path class="cls-4" d="M3195.51,899a6.47,6.47,0,1,0,6.46,6.47A6.47,6.47,0,0,0,3195.51,899Z"/><path class="cls-15" d="M3141.59,878.5c-7.66,2.74-.8,21.76,5.19,35.21-7-13.2-18.34-30.61-27-25.6-5.66,3.29-3.08,13.38,1.84,24-5.58-6.71-11.48-10.83-16.16-7-4.92,4,.1,17.59,6.13,29.84-5.66-8.28-12.14-15-16.8-11.5-11.26,8.37,22,33.14,16.56,64.55-4.09,23.76-2.16,38.55,1.2,49,2.45,7.63,5.66,13,7.88,17.81,18.36-2.35,36.76-9.43,52-16.92,1.18-6.75,2.16-14.67,2.91-24s1.27-20,1.54-32.28c.26-11.37,3.56-31.1,1.61-40.09C3175.61,928.09,3154.87,873.75,3141.59,878.5Z"/><path class="cls-16" d="M3123.86,956.78a174,174,0,0,0-12.26-21.86C3117.29,946.45,3123.86,956.78,3123.86,956.78Z"/><path class="cls-16" d="M3153.29,927.17c-.24-.58-2.76-6.4-6.5-13.43C3150,921,3153,926.59,3153.29,927.17Z"/><path class="cls-16" d="M3139.77,942.56s-8.6-19-18.14-30.45C3128.47,926.83,3139.77,942.56,3139.77,942.56Z"/><path class="cls-16" d="M3145.75,910.53c-7.68-12.55-14.45-19.21-14.08-18.76,8.83,10.81,18.58,30,21.22,35.34s5.54,10.62,8.18,16c.07.14.26,0,.21-.11-2.15-5.6-4.29-11.28-6.93-16.66S3148.88,915.65,3145.75,910.53Z"/><path class="cls-16" d="M3121.66,912.52c3.55,6.76,17,33.56,20.17,40.45.05.11.18,0,.16-.08-1.31-8.26-11.44-29.74-20.13-40.71C3121.49,911.72,3121.39,912,3121.66,912.52Z"/><path class="cls-16" d="M3126.59,964.49c0,.22.45.1.38-.14-.22-.79-.46-1.59-.71-2.39C3126.37,962.77,3126.49,963.61,3126.59,964.49Z"/><path class="cls-16" d="M3115,939.55A87.61,87.61,0,0,1,3126.26,962C3124,945.82,3119.41,943.47,3115,939.55Z"/><path class="cls-16" d="M3110.25,933.76a20.84,20.84,0,0,0,4.74,5.79c-1.42-2.1-2.94-4.19-4.54-6.26C3110.1,932.83,3110,933.24,3110.25,933.76Z"/><path class="cls-36" d="M3112.57,1037h0c2.45,7.63,5.66,13,7.88,17.81,18.36-2.35,36.76-9.43,52-16.92,1.18-6.75,2.16-14.67,2.91-24C3175.37,1013.89,3136.23,1041.7,3112.57,1037Z"/><path class="cls-15" d="M3193.43,935.72c-11.74,1.84-14.91,5.8-14.91,5.8,1.74,8.05-4.17,47-2.62,64.88.39-.6,15.42-49.95,23.2-56.82C3206.12,943.38,3205.17,933.89,3193.43,935.72Z"/><path class="cls-9" d="M3316,1318.2l-109.95-306.26-123.71,50.59h0v0c.21,1.3,4.5,27.55,12.69,65.78.18.84.37,1.7.55,2.57.29,1.34.58,2.71.89,4.09.49,2.28,1,4.6,1.53,7l1.07,4.77c.44,2,.89,4,1.35,6s.88,3.83,1.34,5.78q1.68,7.29,3.54,14.94.66,2.7,1.33,5.44c.87,3.56,1.78,7.18,2.7,10.84.21.83.42,1.67.64,2.51q2,7.68,4.06,15.58c.25,1,.5,1.91.76,2.87.7,2.59,1.4,5.19,2.12,7.81.3,1.12.61,2.25.93,3.37s.61,2.21.92,3.32q1.9,6.82,3.9,13.71c.34,1.15.67,2.3,1,3.45.27.94.55,1.89.84,2.83.09.33.19.65.29,1,.65,2.2,1.3,4.4,2,6.6.35,1.17.71,2.33,1.06,3.49l1.08,3.49c.36,1.17.72,2.33,1.09,3.5,2.3,7.36,4.69,14.75,7.16,22.12q1,3,2.05,6a.25.25,0,0,1,0,.07q1,3.06,2.12,6.1a.14.14,0,0,0,0,.06l1.05,3,1,2.75.21.6c.32.9.65,1.8,1,2.71q2.2,6.11,4.51,12.19c.29.78.58,1.55.88,2.31s.49,1.31.75,1.95c.4,1.06.81,2.12,1.22,3.17.21.55.42,1.08.64,1.63.39,1,.78,2,1.18,3l1,2.55c.47,1.15.93,2.3,1.39,3.44s.91,2.22,1.37,3.33l1,2.5q1.21,2.91,2.45,5.81c.41,1,.82,1.91,1.24,2.87q3.82,8.82,7.83,17.36l1.16,2.45.93,1.94.84,1.72c.3.63.61,1.27.92,1.9.42.85.84,1.71,1.27,2.56q2.09,4.18,4.23,8.3l1.23,2.35q2.23,4.21,4.52,8.31l1.37,2.44c1,1.71,2,3.42,2.94,5.09l1.49,2.52s0,0,0,0c1.5,2.5,3,5,4.53,7.36.51.81,1,1.61,1.54,2.41,0,0,0,0,0,0,.51.79,1,1.58,1.53,2.35q1.56,2.37,3.14,4.69c.54.77,1.06,1.53,1.6,2.29l0,0,1.58,2.23c1.06,1.47,2.12,2.93,3.19,4.36l.12.16c.52.7,1,1.4,1.58,2.09,0,0,0,0,0,0l1.63,2.1,1.67,2.11,0,0,1.66,2c.95,1.16,1.91,2.29,2.86,3.4,12.12,14.06,25.11,25.2,39,32.31.25.11.5.26.74.38.44.18.87.37,1.31.54.26.11.51.22.76.31s.6.24.9.35c.74.28,1.48.55,2.21.79q2.74.95,5.42,1.59c11.91,2.85,22.69,1.41,31.88-3.73,12.28-6.86,21.61-20.23,26.91-38.4,7.24-24.68,6.92-57.62-3.07-93.78Z"/><path class="cls-28" d="M3082.34,1062.53c1.51.08,83.59-1.42,114.74,16.61,32.78,32.78,118.9,239,118.9,239h0l-109.94-306.26Z"/></g><path class="cls-37" d="M2313.05,360H1958c-100.24,0-182,84.47-174.08,184.4a170.59,170.59,0,0,0,73.76,127.21.31.31,0,0,1,.13.25V780.49a.31.31,0,0,0,.5.24l99.36-79.21a.37.37,0,0,1,.2-.07H2309.2c93.2,0,172.12-73.06,174.52-166.22A170.73,170.73,0,0,0,2313.05,360Z"/><path class="cls-10" d="M2239.81,437.33H1909.67a31.93,31.93,0,0,0,0,63.85h330.14a31.93,31.93,0,1,0,0-63.85Z"/><path class="cls-10" d="M2124,533.11H1892.63a9.63,9.63,0,0,0,0,19.26H2124a9.63,9.63,0,1,0,0-19.26Z"/><path class="cls-10" d="M2242.74,533.11h-53.23a9.63,9.63,0,0,0,0,19.26h53.23a9.63,9.63,0,1,0,0-19.26Z"/><path class="cls-10" d="M2417.91,533.11H2289.05a9.63,9.63,0,0,0,0,19.26h128.86a9.63,9.63,0,1,0,0-19.26Z"/><path class="cls-10" d="M1947.32,573.32h-53.23a9.64,9.64,0,0,0,0,19.27h53.23a9.64,9.64,0,0,0,0-19.27Z"/><path class="cls-10" d="M2220,633.7h-53.23a9.63,9.63,0,1,0,0,19.26H2220a9.63,9.63,0,1,0,0-19.26Z"/><path class="cls-10" d="M2122.49,573.32H1993.63a9.64,9.64,0,0,0,0,19.27h128.86a9.64,9.64,0,0,0,0-19.27Z"/><path class="cls-10" d="M2122.49,633.7H1993.63a9.63,9.63,0,0,0,0,19.26h128.86a9.63,9.63,0,1,0,0-19.26Z"/><path class="cls-37" d="M3260.11,1584.29H3008.66a120.91,120.91,0,0,0-120.87,124.1c1.7,66,57.59,117.72,123.59,117.72H3260.2a.24.24,0,0,1,.14.05l70.37,56.09a.21.21,0,0,0,.35-.17v-76.93a.21.21,0,0,1,.09-.17,120.79,120.79,0,0,0,52.24-90.1C3389,1644.11,3331.1,1584.29,3260.11,1584.29Z"/><path class="cls-10" d="M3294.34,1639.05H3060.52a22.61,22.61,0,1,0,0,45.22h233.82a22.61,22.61,0,1,0,0-45.22Z"/><path class="cls-10" d="M3306.4,1706.88H3142.58a6.83,6.83,0,0,0,0,13.65H3306.4a6.83,6.83,0,1,0,0-13.65Z"/><path class="cls-10" d="M3096.15,1706.88h-37.7a6.83,6.83,0,0,0,0,13.65h37.7a6.83,6.83,0,0,0,0-13.65Z"/><path class="cls-10" d="M3025.65,1706.88h-91.26a6.83,6.83,0,0,0,0,13.65h91.26a6.83,6.83,0,0,0,0-13.65Z"/><path class="cls-10" d="M3305.37,1735.37h-37.7a6.82,6.82,0,0,0,0,13.64h37.7a6.82,6.82,0,1,0,0-13.64Z"/><path class="cls-10" d="M3112.27,1778.13h-37.69a6.82,6.82,0,1,0,0,13.64h37.69a6.82,6.82,0,1,0,0-13.64Z"/><path class="cls-10" d="M3234.87,1735.37h-91.25a6.82,6.82,0,1,0,0,13.64h91.25a6.82,6.82,0,1,0,0-13.64Z"/><path class="cls-10" d="M3234.87,1778.13h-91.25a6.82,6.82,0,1,0,0,13.64h91.25a6.82,6.82,0,1,0,0-13.64Z"/><circle class="cls-37" cx="3681.88" cy="1122.9" r="240.64"/><path class="cls-38" d="M3841.31,1103H3522.46a7.56,7.56,0,0,0-7.55,8.21c7.35,85.95,80.69,153.27,167,153.27s159.63-67.32,167-153.27a7.55,7.55,0,0,0-7.54-8.21Z"/><path class="cls-17" d="M3681.88,1256.86c83.78,0,152.42-64.37,159.43-146.33H3522.46C3529.46,1192.49,3598.11,1256.86,3681.88,1256.86Z"/><path class="cls-39" d="M3547.65,1183.7h268.47a159.25,159.25,0,0,0,25.19-73.17H3522.46A159.14,159.14,0,0,0,3547.65,1183.7Z"/><path class="cls-5" d="M3529.24,1144.47c41.36-18.53,161.07-60,306.11-2.6a158.16,158.16,0,0,0,6-31.34H3522.46A157.33,157.33,0,0,0,3529.24,1144.47Z"/><path class="cls-17" d="M3600,1005a48.2,48.2,0,0,0-47.72,43.81,10.83,10.83,0,0,0,21.59,1.85,26.23,26.23,0,0,1,52.26,0,10.83,10.83,0,0,0,10.78,9.92c.31,0,.62,0,.93,0a10.83,10.83,0,0,0,9.88-11.72A48.2,48.2,0,0,0,3600,1005Z"/><path class="cls-17" d="M3763.76,1005a48.2,48.2,0,0,0-47.72,43.81,10.83,10.83,0,0,0,21.59,1.85,26.23,26.23,0,0,1,52.26,0,10.83,10.83,0,0,0,10.78,9.92c.31,0,.62,0,.93,0a10.84,10.84,0,0,0,9.88-11.72A48.2,48.2,0,0,0,3763.76,1005Z"/><path class="cls-9" d="M1504.17,538.73H950.36a108.56,108.56,0,0,0-32.44,212.15V816.8l61-61h525.27a108.55,108.55,0,0,0,0-217.09Z"/><polygon class="cls-10" points="978.66 631.24 963.68 600.88 948.69 631.24 915.19 636.11 939.43 659.74 933.71 693.1 963.68 677.35 993.64 693.1 987.92 659.74 1012.16 636.11 978.66 631.24"/><polygon class="cls-10" points="1109.03 631.24 1094.05 600.88 1079.07 631.24 1045.57 636.11 1069.81 659.74 1064.09 693.1 1094.05 677.35 1124.01 693.1 1118.29 659.74 1142.53 636.11 1109.03 631.24"/><polygon class="cls-10" points="1239.4 631.24 1224.42 600.88 1209.44 631.24 1175.94 636.11 1200.18 659.74 1194.46 693.1 1224.42 677.35 1254.39 693.1 1248.66 659.74 1272.91 636.11 1239.4 631.24"/><polygon class="cls-10" points="1369.78 631.24 1354.8 600.88 1339.81 631.24 1306.31 636.11 1330.55 659.74 1324.83 693.1 1354.8 677.35 1384.76 693.1 1379.04 659.74 1403.28 636.11 1369.78 631.24"/><polygon class="cls-10" points="1500.15 631.24 1485.17 600.88 1470.19 631.24 1436.68 636.11 1460.93 659.74 1455.2 693.1 1485.17 677.35 1515.13 693.1 1509.41 659.74 1533.65 636.11 1500.15 631.24"/><circle class="cls-37" cx="1001.19" cy="1028.44" r="144.42" transform="translate(-433.97 1009.17) rotate(-45)"/><path class="cls-38" d="M1096.87,1016.47H905.52a4.54,4.54,0,0,0-4.53,4.93c4.41,51.58,48.42,92,100.2,92s95.8-40.4,100.21-92a4.54,4.54,0,0,0-4.53-4.93Z"/><path class="cls-17" d="M1001.19,1108.83a96.06,96.06,0,0,0,95.68-87.81H905.52A96.05,96.05,0,0,0,1001.19,1108.83Z"/><path class="cls-39" d="M920.63,1064.92h161.12a95.49,95.49,0,0,0,15.12-43.9H905.52A95.48,95.48,0,0,0,920.63,1064.92Z"/><path class="cls-5" d="M909.58,1041.38c24.83-11.11,96.67-36,183.71-1.56a94.83,94.83,0,0,0,3.58-18.8H905.52A94.57,94.57,0,0,0,909.58,1041.38Z"/><path class="cls-17" d="M952.06,957.67A28.92,28.92,0,0,0,923.42,984a6.5,6.5,0,0,0,13,1.11,15.74,15.74,0,0,1,31.36,0,6.5,6.5,0,0,0,6.47,6,5.33,5.33,0,0,0,.56,0,6.5,6.5,0,0,0,5.93-7A28.92,28.92,0,0,0,952.06,957.67Z"/><path class="cls-17" d="M1050.33,957.67A28.92,28.92,0,0,0,1021.69,984a6.5,6.5,0,0,0,13,1.11,15.74,15.74,0,0,1,31.36,0,6.5,6.5,0,0,0,6.47,6,5.24,5.24,0,0,0,.56,0,6.5,6.5,0,0,0,5.93-7A28.92,28.92,0,0,0,1050.33,957.67Z"/><path class="cls-9" d="M2236.55,1357.85a137.2,137.2,0,0,0-68,256.37v54.12l39.14-39.14a137.21,137.21,0,1,0,28.85-271.35Z"/><path class="cls-18" d="M2297.78,1460.19,2313,1445l-26.25-26.25-15.13,15.12a70.47,70.47,0,0,0-16.51-6.88v-21.35H2218V1427a70.47,70.47,0,0,0-16.51,6.88l-15.12-15.12L2160.09,1445l15.22,15.22a69.59,69.59,0,0,0-6.73,16.42H2147v37.13h21.79a70.12,70.12,0,0,0,6.78,16.17l-15.47,15.46,26.26,26.26,15.56-15.56a70,70,0,0,0,16.07,6.63v22h37.13v-22a69.91,69.91,0,0,0,16.08-6.63l15.56,15.56,26.25-26.26-15.47-15.46a70.15,70.15,0,0,0,6.79-16.17h21.79v-37.13h-21.6A69.59,69.59,0,0,0,2297.78,1460.19Zm-61.23,75.34a40.7,40.7,0,1,1,40.7-40.7A40.7,40.7,0,0,1,2236.55,1535.53Z"/><path class="cls-9" d="M2777.69,510.5a103.88,103.88,0,1,0,21.84,205.43l29.63,29.63v-41a103.87,103.87,0,0,0-51.47-194.09Z"/><path class="cls-10" d="M2808.41,567.91l-51,51-15.51-15.52a16.82,16.82,0,0,0-23.79,23.79l27.41,27.41a16.82,16.82,0,0,0,23.79,0l62.89-62.89a16.82,16.82,0,0,0-23.79-23.79Z"/><path class="cls-23" d="M1925.54,2263.24H1732.87a22.81,22.81,0,0,0-22.78,22.77v285.17h238.23V2286A22.81,22.81,0,0,0,1925.54,2263.24Z"/><path class="cls-22" d="M1665,2399.72c-1.1-12.58,1.55-22,8.1-28.82,12.83-13.33,38.83-15.14,47.66-14.72l1.9-34.81c-4.86-.26-48.36-1.82-74.54,25.21-9.52,9.83-20.34,27.56-17.85,56.16,6.52,75,79.65,117.86,82.76,119.65l17.37-30.23C1729.79,2491.81,1670,2456.81,1665,2399.72Z"/><path class="cls-40" d="M1889.49,2359.11h-68.27a42.85,42.85,0,1,0,0,85.7h68.27a42.85,42.85,0,0,0,0-85.7Z"/><path class="cls-10" d="M1846.05,1874.51a50.81,50.81,0,0,0-4.29-7S1843.38,1870,1846.05,1874.51Z"/><path class="cls-10" d="M1780.36,2084.33c-57.86,107.32,61.4,150.64,61.4,150.64-49.48-102.48,42.4-159,49.47-219.1,5.87-49.89-32.13-119.28-45.18-141.36C1866.26,1914.61,1834.89,1983.19,1780.36,2084.33Z"/><path class="cls-22" d="M1776.91,2473.8c-32-81.92-36-195.69-36.37-210.56h-7.67a22.81,22.81,0,0,0-22.78,22.77v285.17H1837C1829.44,2566.19,1804.69,2545.15,1776.91,2473.8Z"/><polygon class="cls-4" points="1038.47 2362.43 1264.81 2359.55 1152.36 2117.35 1038.47 2362.43"/><rect class="cls-4" x="947.64" y="2118.79" width="204.72" height="236.43"/><polygon class="cls-9" points="842.4 2362.43 1058.65 2362.43 946.2 2120.23 842.4 2362.43"/><rect class="cls-9" x="1031.26" y="2149.06" width="102.36" height="10.09"/><rect class="cls-9" x="1039.91" y="2169.25" width="102.36" height="10.09"/><path class="cls-9" d="M1041.73,2203.2l54.88,129.37,123.51-3.48-58.93-125.42Zm60.49,120.44-47.53-112,101.16.83,50.7,108.67Z"/><rect class="cls-18" x="1061.17" y="2229.43" width="109.35" height="1.46"/><rect class="cls-18" x="1070.66" y="2253.03" width="109.35" height="1.46"/><rect class="cls-18" x="1078.47" y="2276.64" width="109.35" height="1.46"/><rect class="cls-18" x="1091.3" y="2300.25" width="109.35" height="1.46"/><rect class="cls-18" x="1162.62" y="2204.7" width="1.46" height="123.89" transform="translate(-827.37 676.65) rotate(-24.22)"/><rect class="cls-18" x="1132.35" y="2205.24" width="1.46" height="123.89" transform="translate(-830.24 664.26) rotate(-24.22)"/><rect class="cls-18" x="1102.33" y="2203.38" width="1.46" height="127.63" transform="translate(-804.22 618.19) rotate(-23.21)"/></g></g></svg>