<svg xmlns="http://www.w3.org/2000/svg" width="448" height="384" viewBox="0 0 448 384">
  <path id="paw-solid" d="M179.558,166.971c-55.67,0-134.036,86.258-134.036,140.741-.617,24.535,18.138,39.227,49.729,39.227,34.228,0,56.883-17.645,84.308-17.645,27.705,0,50.43,17.645,84.308,17.645,30.931,0,50.318-14.679,50.318-39.192C313.595,253.3,235.249,166.971,179.558,166.971ZM76.313,158.113C69.04,133.775,46.5,117.957,26.079,122.878S-4.981,151.5,2.3,175.828C9.569,200.222,32.1,216.04,52.529,211.119S83.537,182.437,76.313,158.113Zm59.408-14.622c21.652-5.712,32.524-34.517,24.2-65.639s-32.615-49.983-54.351-44.9C83.916,38.662,73.045,67.468,81.37,98.59,89.71,129.079,113.978,149.255,135.721,143.49Zm197.372-20.6c-20.425-4.288-42.96,10.9-50.234,35.234s3.332,48.064,23.756,52.985c20.425,4.288,42.869-10.9,50.234-35.234C364.1,151.5,352.873,127.813,333.093,122.892Zm-109.7,20.6c21.112,5.712,46.025-14.412,54.351-44.9s-2.543-59.931-24.2-65.639c-21.112-5.712-46.025,14.412-54.351,44.9C190.851,108.34,201.722,137.8,223.4,143.49Z" transform="translate(43.995 3.019)" fill="#ac1414"/>
  <path id="bars-solid" d="M0,96A32,32,0,0,1,32,64H416a32,32,0,0,1,0,64H32A31.985,31.985,0,0,1,0,96ZM0,256a31.985,31.985,0,0,1,32-32H416a32,32,0,0,1,0,64H32A31.985,31.985,0,0,1,0,256ZM416,448H32a32,32,0,0,1,0-64H416a32,32,0,0,1,0,64Z" transform="translate(0 -64)" opacity="0.6"/>
</svg>
