<svg xmlns="http://www.w3.org/2000/svg" xmlns:xlink="http://www.w3.org/1999/xlink" width="179.984" height="152.353" viewBox="0 0 179.984 152.353">
  <defs>
    <clipPath id="clip-path">
      <rect id="Retângulo_4" data-name="Retângulo 4" width="116.765" height="122.809" transform="translate(0 0)" fill="none"/>
    </clipPath>
  </defs>
  <path id="shield-dog-solid" d="M67.5,39.365a3.037,3.037,0,0,1-3.029,3.029,3.033,3.033,0,1,1,0-6.057A3.037,3.037,0,0,1,67.5,39.365ZM61.5-.008a6.021,6.021,0,0,1,2.991.771l38.69,16.367a5.847,5.847,0,0,1,3.672,5.219c1.079,18.077-5.527,57.505-42.287,73.746a6.472,6.472,0,0,1-3.066.814,7.143,7.143,0,0,1-3.256-.814C21.656,79.854,15.06,40.425,16.123,22.348a5.86,5.86,0,0,1,3.685-5.219L58.492.763A6.092,6.092,0,0,1,61.5-.008ZM43.443,54.168l-3.369,6.4,24.4,12.114V60.566h9.086A15.139,15.139,0,0,0,88.7,45.423V39.365a3.037,3.037,0,0,0-3.029-3.029H73.559L72.2,33.63a6.033,6.033,0,0,0-5.414-3.35H58.245V42.394A12.018,12.018,0,0,1,46.131,54.508a11.492,11.492,0,0,1-2.688-.341ZM40.074,33.308v9.086a6.162,6.162,0,0,0,6.057,6.057,5.945,5.945,0,0,0,6.057-6.057V30.28H43.1A3.154,3.154,0,0,0,40.074,33.308Z" transform="translate(73.023 55.444)" fill="#ac1414"/>
  <text id="ADMIN" transform="translate(23.042 146.765)" font-size="20" font-family="Verdana-Bold, Verdana" font-weight="700"><tspan x="0" y="0">ADMIN</tspan></text>
  <g id="Grupo_9" data-name="Grupo 9">
    <g id="Grupo_6" data-name="Grupo 6" clip-path="url(#clip-path)">
      <path id="Caminho_16" data-name="Caminho 16" d="M31.7.1c5.965-.858,9.147,3.729,12.956,7.369,2.208,2.11,4.285-.506,6.413-.813,7.51-1.085,14.873-1.46,22.2,1.12C76.9,9.058,77.348,4.919,79.308,3.46,86.009-1.525,96.055-.149,100.8,6.7c5.469,7.9,8.418,16.743,11.1,25.855,2.64,8.956,3.765,18.122,4.461,27.277.772,10.166.73,20.508-2.8,30.329a15.49,15.49,0,0,1-7.47,8.6c-3.369,1.7-4.8-1.4-6.242-3.732-.584-.948-1.041-1.973-1.556-2.963a13.916,13.916,0,0,0-1.487,3.209c-1.735,9.618-7.322,16.186-15.713,20.854-6.43,3.578-13.259,5.026-20.475,6.161a47.965,47.965,0,0,1-16.866-.521,41.9,41.9,0,0,1-22.978-12.3c-3.285-3.475-5.144-7.593-7.3-11.67-.316-.6-3.153-.356-4.711-1.51C3.061,92.067,1.6,85.908.832,79.451A92.823,92.823,0,0,1,.838,54.632,109.837,109.837,0,0,1,8.617,26.647c3.862-8.828,8.216-17.219,15.087-24.1C25.829.421,28.5-.183,31.7.1M93.86,49.721c.7-9.954-.42-19.383-5.878-28.181C82.561,12.8,74.641,8.446,64.942,7.2a32.852,32.852,0,0,0-20.561,3.676c-8.773,4.847-13.4,12.789-16.469,21.672A128.542,128.542,0,0,0,22.95,52.864C21.5,61.34,17.008,68.625,14.436,76.669c-3.182,9.949-1.021,18.933,3.741,27.045,6.16,10.5,16.76,15.676,28.5,17.033,12.757,1.474,25.2-.117,36.5-7.51C92.5,107.138,95.65,98.15,96.6,87.96c.569-6.067-.711-12.077-1.652-18.1-1.037-6.641-1.773-13.379-1.092-20.139M25.921,34.445c-.168-.479-.32-.908-.471-1.337-.2.085-.522.117-.586.262a52.332,52.332,0,0,0-3.015,7.1c-1.749,6.372-4.005,12.638-4.255,19.368-.047,1.273-1.73,3-.3,3.719.852.427,1.139-1.97,1.71-3.094,4.165-8.2,3.623-17.593,6.914-26.021M95.765,55.717c-.718,5.251.459,10.607.986,16.005a3.085,3.085,0,0,0,.432.918c.184-.213.488-.4.532-.642a47.325,47.325,0,0,0,.941-5.745c.427-7.244-.846-14.348-2.012-21.452-.03-.181-.251-.33-.383-.493-.165.333-.471.665-.474,1-.036,3.4-.022,6.791-.022,10.41" fill="#161615"/>
      <path id="Caminho_17" data-name="Caminho 17" d="M93.86,49.721c-.681,6.761.055,13.5,1.093,20.139.941,6.023,2.22,12.033,1.652,18.1-.955,10.19-4.11,19.178-13.433,25.277-11.3,7.392-23.742,8.984-36.5,7.509-11.735-1.356-22.335-6.537-28.5-17.032-4.762-8.113-6.923-17.1-3.741-27.045,2.572-8.044,7.068-15.33,8.515-23.8a128.324,128.324,0,0,1,4.962-20.317c3.071-8.884,7.7-16.826,16.468-21.672A32.852,32.852,0,0,1,64.942,7.2c9.7,1.246,17.619,5.6,23.04,14.34,5.458,8.8,6.576,18.227,5.878,28.181M56.272,64.99c-9.534,0-17.107,5.373-16.616,12.4.731,10.444,6.837,21.54,17.109,21.57,7.6.022,18.02-10.635,18.027-18.4C74.8,72.2,66.219,64.989,56.272,64.99M43.509,37.359c.113,1.623-.1,3.291.4,4.7.928,2.6,2.762,5.152,5.8,3.487,6.624-3.631,7.843-10.252,7.911-17.032a6.745,6.745,0,0,0-3.431-6.28,3.978,3.978,0,0,0-3.293.182c-5.637,3.387-6.965,8.982-7.385,14.941m35.435-1.611c.334-1.783-.693-5.162-2.374-8.168-.886-1.585-2.211-3.461-4.7-3.475-2.16-.013-3.249,1.334-4.122,2.9-3.266,5.855-2.469,11.791.16,17.545,1.038,2.273,2.673,4.873,5.834,3.766,5.155-1.8,4.758-6.49,5.2-12.568" fill="#fff"/>
      <path id="Caminho_18" data-name="Caminho 18" d="M56.273,64.99c9.947,0,18.527,7.21,18.52,15.564-.008,7.768-10.429,18.426-18.028,18.4-10.271-.03-16.377-11.126-17.108-21.571-.492-7.024,7.081-12.4,16.616-12.4" fill="#161615"/>
      <path id="Caminho_19" data-name="Caminho 19" d="M43.509,37.359c.42-5.96,1.749-11.555,7.385-14.942a3.983,3.983,0,0,1,3.293-.182,6.75,6.75,0,0,1,3.432,6.28c-.069,6.781-1.288,13.4-7.912,17.033-3.036,1.665-4.87-.882-5.8-3.487-.5-1.412-.288-3.079-.4-4.7" fill="#161615"/>
      <path id="Caminho_20" data-name="Caminho 20" d="M78.944,35.748c-.442,6.078-.045,10.764-5.2,12.568-3.161,1.107-4.8-1.493-5.834-3.766C65.281,38.8,64.484,32.86,67.75,27c.873-1.566,1.962-2.913,4.122-2.9,2.487.014,3.812,1.89,4.7,3.475,1.681,3.006,2.708,6.385,2.374,8.168" fill="#161615"/>
    </g>
  </g>
</svg>
