<svg id="Grupo_11" data-name="Grupo 11" xmlns="http://www.w3.org/2000/svg" xmlns:xlink="http://www.w3.org/1999/xlink" width="1366.558" height="810.372" viewBox="0 0 1366.558 810.372">
  <defs>
    <clipPath id="clip-path">
      <rect id="Retângulo_5" data-name="Retângulo 5" width="1366.558" height="810.372" fill="none"/>
    </clipPath>
  </defs>
  <g id="Grupo_10" data-name="Grupo 10" transform="translate(0 0)" clip-path="url(#clip-path)">
    <path id="Caminho_21" data-name="Caminho 21" d="M209.167.692C248.528-4.97,269.525,25.3,294.659,49.317c14.57,13.923,28.275-3.339,42.317-5.365,49.556-7.16,98.142-9.634,146.5,7.39,23.94,8.426,26.916-18.885,39.849-28.513,44.217-32.894,110.507-23.814,141.8,21.386,36.088,52.123,55.547,110.481,73.258,170.608,17.42,59.1,24.844,119.581,29.437,179.991,5.094,67.082,4.817,135.325-18.456,200.13-8.71,24.263-26.249,45.082-49.292,56.735-22.231,11.237-31.7-9.218-41.189-24.626-3.854-6.255-6.869-13.019-10.267-19.552-3.359,7.041-8.473,13.771-9.812,21.175C627.363,692.143,590.5,735.483,535.127,766.285,492.7,789.9,447.636,799.45,400.02,806.94c-38.437,6.044-75.383,3.6-111.293-3.438-57.758-11.317-109.768-36.886-151.624-81.163-21.677-22.93-33.943-50.1-48.19-77.006-2.085-3.939-20.806-2.349-31.086-9.964C20.2,607.516,10.568,566.875,5.494,524.267c-6.5-54.531-8.123-109.32.04-163.772,9.528-63.552,25.332-125.222,51.331-184.663C82.348,117.58,111.079,62.211,156.418,16.819,170.44,2.777,188.032-1.209,209.167.692m410.185,327.4c4.606-65.683-2.771-127.9-38.787-185.956-35.771-57.666-88.032-86.4-152.033-94.631-46.751-6-92.586.455-135.675,24.257-57.89,31.984-88.4,84.39-108.673,143.006-14.972,43.32-25.009,88.785-32.742,134.065-9.542,55.93-39.209,104-56.181,157.081-21,65.65-6.737,124.932,24.686,178.46,40.648,69.259,110.593,103.44,188.028,112.395,84.179,9.726,166.279-.772,240.85-49.556,61.519-40.245,82.338-99.554,88.633-166.794,3.755-40.034-4.692-79.692-10.9-119.435-6.843-43.822-11.7-88.283-7.206-132.89m-448.3-100.8c-1.109-3.161-2.112-5.992-3.108-8.822-1.326.561-3.444.772-3.867,1.729-6.882,15.533-15.441,30.644-19.895,46.87-11.541,42.047-26.428,83.394-28.077,127.8-.31,8.4-11.416,19.8-1.96,24.54,5.622,2.818,7.516-13,11.284-20.416,27.483-54.082,23.907-116.09,45.623-171.7M631.922,367.655c-4.738,34.649,3.029,69.992,6.506,105.611.2,2.092,1.867,4.045,2.851,6.058,1.214-1.405,3.22-2.659,3.51-4.236,2.323-12.6,5.464-25.187,6.209-37.909,2.818-47.8-5.583-94.677-13.276-141.554-.2-1.194-1.656-2.178-2.527-3.253-1.089,2.2-3.108,4.388-3.128,6.592-.238,22.4-.145,44.811-.145,68.692" transform="translate(-0.004 0.001)" fill="#161615"/>
    <path id="Caminho_22" data-name="Caminho 22" d="M546.944,289.567c-4.494,44.613.363,89.075,7.212,132.89,6.209,39.744,14.649,79.4,10.9,119.442-6.3,67.24-27.12,126.549-88.639,166.794-74.571,48.777-156.665,59.282-240.85,49.549-77.435-8.948-147.381-43.135-188.028-112.388C16.116,592.32,1.857,533.044,22.854,467.394c16.972-53.079,46.639-101.157,56.187-157.081,7.727-45.28,17.764-90.744,32.742-134.065C132.048,117.627,162.56,65.22,220.45,33.243c43.089-23.8,88.923-30.261,135.675-24.257,64,8.222,116.261,36.966,152.033,94.624,36.015,58.061,43.393,120.273,38.787,185.956M298.914,390.322c-62.911.013-112.883,35.454-109.643,81.81,4.824,68.916,45.115,142.135,112.9,142.333,50.143.145,118.908-70.177,118.954-121.441.053-55.118-56.57-102.708-122.207-102.7M214.7,208c.746,10.71-.68,21.716,2.639,31.027,6.124,17.189,18.225,34,38.259,23.009,43.709-23.96,51.753-67.649,52.2-112.388.165-16.015-6.467-33.211-22.64-41.439-5.714-2.91-16.087-2.191-21.729,1.2-37.2,22.35-45.96,59.269-48.731,98.59m233.823-10.63c2.2-11.765-4.573-34.062-15.665-53.9-5.846-10.459-14.59-22.838-31-22.93-14.253-.086-21.439,8.8-27.2,19.136-21.551,38.635-16.292,77.8,1.056,115.773,6.849,15,17.638,32.155,38.5,24.851,34.016-11.9,31.4-42.825,34.313-82.932" transform="translate(72.404 38.523)" fill="#fff"/>
    <path id="Caminho_23" data-name="Caminho 23" d="M149.427,64.99c65.637-.007,122.253,47.576,122.207,102.7-.053,51.258-68.817,121.587-118.96,121.441-67.775-.2-108.066-73.416-112.89-142.339C36.537,100.445,86.509,65,149.427,64.99" transform="translate(221.898 363.856)" fill="#161615"/>
    <path id="Caminho_24" data-name="Caminho 24" d="M43.509,123.572C46.28,84.244,55.05,47.325,92.24,24.975c5.648-3.392,16.021-4.1,21.729-1.2,16.173,8.235,22.8,25.431,22.647,41.439-.455,44.745-8.5,88.428-52.208,112.395C64.374,188.6,52.272,171.788,46.155,154.6c-3.319-9.317-1.9-20.317-2.646-31.027" transform="translate(243.591 122.946)" fill="#161615"/>
    <path id="Caminho_25" data-name="Caminho 25" d="M153.624,100.933c-2.917,40.107-.3,71.028-34.313,82.932-20.858,7.3-31.647-9.852-38.5-24.85C63.467,121.046,58.208,81.877,79.759,43.242c5.761-10.333,12.947-19.222,27.2-19.136,16.411.092,25.154,12.471,31,22.93,11.092,19.836,17.869,42.132,15.665,53.9" transform="translate(367.299 134.955)" fill="#161615"/>
    <path id="Caminho_26" data-name="Caminho 26" d="M383.793,665.927q-9.255,20.8-69.477,24.065-54.468,3-102.074-8.314a176.033,176.033,0,0,1-34.524-11.145q-38.84-17.292-54.426-47.741-15.342-28.912-3.273-55.99,15.015-33.732,84.04-25.1,56.626,6.889,90.375,21.907a214.457,214.457,0,0,1,67.86,47.147q31.278,33.208,21.5,55.171M704.13,396.287q-20.439,45.9-58.128,58.741Q600.2,471.3,523.314,437.06a598.262,598.262,0,0,1-66.95-35.454,286.958,286.958,0,0,0-31.9-17.024q-68.266-30.4-98.511,11.138a89.469,89.469,0,0,0-9.086,16.167q-12.224,27.467-11.574,97.8-44.1-1.307-75.864-15.447-19.618-8.74-24.138-19.684Q156.034,362.36,182.6,302.738q12.927-29.031,42.779-36.424t69.873,10.426q5.087,2.267,15.124,7.206,10.017,4.939,15.124,7.206,57.27,25.507,97.785,24.27,36.494-.673,66.653-27.206,19.974-17.42,52.888-63.881A121.408,121.408,0,0,0,554.79,203.8q29.347-65.911-78.148-113.78Q437.011,72.376,400.9,66.4t-40.839,4.612q-3.316,7.463,25.88,32.683,70.988,61.229,53.871,99.672-8.562,19.232-60.978,20.8-59.526,1.7-121.9-26.078Q136.5,144.463,171.778,65.214q23.765-53.35,115.549-55.732,95.624-2.544,217.636,51.786,120.052,53.459,177.51,130.284,49.915,67.356,40.324,132.2-6.8,45.867-18.668,72.539" transform="translate(642.21 52.447)" fill="#9a0511"/>
  </g>
</svg>
